<?xml version="1.0" encoding="utf-8"?>
<!-- Generator: Adobe Illustrator 21.0.2, SVG Export Plug-In . SVG Version: 6.00 Build 0)  -->
<svg version="1.1" id="레이어_1" xmlns="http://www.w3.org/2000/svg" xmlns:xlink="http://www.w3.org/1999/xlink" x="0px"
	 y="0px" viewBox="0 0 1141.4 196.5" style="enable-background:new 0 0 1141.4 196.5;" xml:space="preserve">
<style type="text/css">
	.st0{fill:#CCCCCB;}
</style>
<g>
	<path class="st0" d="M155.8,6.7h-18.6V18v19.5v47H48.6V6.7H9v160.2c0,11.6,9.4,21,21,21h18.6v-11.3v-19.5v-47.6h88.5v78.4h39.7
		V27.8C176.8,16.2,167.4,6.7,155.8,6.7z"/>
	<g>
		<path class="st0" d="M514.3,6.7L514.3,6.7l-88.7,0v0H407c-11.6,0-21,9.4-21,21c0,0,0,0,0,0c0,0,0,0,0,0v18.6V188h39.7V46.4h88.7
			V167c0,0,0,0,0,0s0,0,0,0c0,11,8.4,20,19.2,20.9h3.7h16.8v-11.2v-19.5V46.4V6.7v0H514.3z"/>
	</g>
	<g>
		<path class="st0" d="M899.2,188L899.2,188l-88.7,0v0h-18.6c-11.6,0-21-9.4-21-21c0,0,0,0,0,0c0,0,0,0,0,0v-18.6V6.7h39.7v141.5
			h88.7V27.7c0,0,0,0,0,0c0,0,0,0,0,0c0-11,8.4-20,19.2-20.9h3.7h16.8v11.2v19.5v110.8v39.7v0H899.2z"/>
	</g>
	<path class="st0" d="M725.4,46.5C725.4,46.5,725.4,46.5,725.4,46.5C725.4,46.5,725.4,46.5,725.4,46.5c11.6,0,21.1-9.4,21.1-21V6.7
		h-11.5h-19H578.4v0.5v39.2V148v18.9c0,11.6,9.4,21,21,21h18.6h128.3v-39.8H618.1V148v-14.3v-23.6h110.1V85.1H618.1V46.5H725.4z"/>
	<path class="st0" d="M361.5,122.4v-10.7C360.6,87,350,8.7,252.5,6.8V6.7h-19.2h-22.1h-10v17.9c0,11.4,9.1,20.7,20.5,21
		c0,0,0.1,0,0.1,0h0.9c0,0,0.1,0,0.1,0h26.7c7.9-0.3,72.1-0.6,72.1,72.8v31c0,0-59.4,2.2-73.1-36.4h7.5h15.8c0,0,0.1,0,0.1,0
		c0,0,0.1,0,0.1,0c11.5,0,20.8-9.3,20.9-20.8c0-0.1,0-0.2,0-0.2c0-0.1,0-0.2,0-0.2v-3.3h0h-0.3H256h-4.8h-43.4h-6.5v0.2
		c0,0,0,0,0,0.1v0.6h0c0.2,8.8,4.6,98.7,120.5,98.7h39.7L361.5,122.4L361.5,122.4z"/>
	<g>
		<path class="st0" d="M1110.3,148.3c-0.1,0-0.1,0-0.2,0h0.4C1110.4,148.3,1110.4,148.3,1110.3,148.3z"/>
		<path class="st0" d="M1110.5,148.3h-0.4H1003V6.7h-39.7v160.2c0,11.6,9.4,21,21,21h18.6h97.5h19.5h11.3v-18.6
			C1131.3,157.8,1122,148.4,1110.5,148.3z"/>
	</g>
</g>
</svg>
