<?xml version="1.0" encoding="utf-8"?>
<!-- Generator: Adobe Illustrator 21.0.2, SVG Export Plug-In . SVG Version: 6.00 Build 0)  -->
<svg version="1.1" id="Layer_1" xmlns="http://www.w3.org/2000/svg" xmlns:xlink="http://www.w3.org/1999/xlink" x="0px" y="0px"
	 viewBox="0 0 383.5 195.4" style="enable-background:new 0 0 383.5 195.4;" xml:space="preserve">
<style type="text/css">
	.st0{fill:#CCCCCC;}
</style>
<g>
	<path class="st0" d="M204.1,63.3c0-29.7-24.2-53.9-53.9-53.9c-29.7,0-53.9,24.2-53.9,53.9C96.4,67.7,97,72,98,76
		c-15.1,9.6-25.1,26.4-25.1,45.5c0,29.7,24.2,53.9,53.9,53.9c29.7,0,53.9-24.2,53.9-53.9c0-4.4-0.5-8.7-1.5-12.8
		c-3.6,2.3-7.4,4.1-11.5,5.5c0.4,2.4,0.7,4.8,0.7,7.3c0,22.9-18.6,41.5-41.5,41.5c-22.9,0-41.5-18.6-41.5-41.5
		c0-13.8,6.8-26.1,17.2-33.6c9,17.3,27,29.2,47.9,29.2c6,0,11.9-1,17.3-2.9c-0.7-4.1-2.1-8.1-4-11.7c-4.2,1.4-8.7,2.2-13.3,2.2
		c-16,0-30-9.2-36.9-22.5c4.2-1.4,8.7-2.2,13.3-2.2c16,0,30,9.2,36.9,22.5c4-1.3,7.7-3.3,11-5.7c-9-17.3-27-29.2-47.9-29.2
		c-6,0-11.9,1-17.3,2.9c-0.4-2.4-0.7-4.8-0.7-7.3c0-22.9,18.6-41.5,41.5-41.5c22.9,0,41.5,18.6,41.5,41.5c0,13.8-6.8,26.1-17.2,33.6
		c1.9,3.7,3.4,7.7,4.5,11.9C194.1,99.2,204.1,82.4,204.1,63.3z"/>
	<path class="st0" d="M82.2,30c0,4.6-0.8,8.6-2.4,12.2c-1.6,3.5-3.9,6.5-6.8,8.9c-2.9,2.4-6.5,4.2-10.6,5.5
		c-4.1,1.2-8.8,1.9-13.9,1.9H37.6v33.4H27.3L27.2,3.8h21.7c4.7,0,9,0.5,13.1,1.5c4,1,7.6,2.6,10.6,4.7c3,2.1,5.4,4.9,7.1,8.2
		C81.4,21.5,82.2,25.5,82.2,30z M71.5,30.3c0-3.6-0.7-6.6-2-9c-1.3-2.3-3-4.1-5.2-5.5c-2.1-1.3-4.6-2.2-7.4-2.7
		c-2.8-0.5-5.7-0.8-8.7-0.8H37.5v37.7h9.1c3.5,0,6.8-0.3,9.8-0.9c3.1-0.6,5.7-1.7,8-3.2c2.2-1.5,4-3.5,5.3-6.1S71.5,34.1,71.5,30.3z
		"/>
	<path class="st0" d="M259.9,54.2l21.8,37.6h-13l-18.3-35.7h-17.1v35.7H223l-0.1-88.1h25.1c10,0,17.6,2.3,22.8,6.8
		c5.2,4.5,7.8,10.6,7.8,18.2c0,7.1-1.6,12.6-4.8,16.8C270.5,49.6,265.9,52.5,259.9,54.2z M268.1,29c0-2.9-0.5-5.5-1.5-7.6
		c-1-2.1-2.4-3.8-4.1-5.2c-1.7-1.4-3.8-2.3-6-3c-2.3-0.6-4.8-0.9-7.4-0.9h-15.9V48h12.2c3.8,0,7.1-0.3,9.9-0.9
		c2.8-0.6,5.2-1.6,7.1-3.1c1.9-1.4,3.3-3.4,4.3-5.8C267.6,35.7,268.1,32.6,268.1,29z"/>
	<path class="st0" d="M321.9,91.8h-10.2V12.5h-30.1V3.8h70.3v8.7h-29.9V91.8z"/>
	<path class="st0" d="M58.2,97v8.7H16.5v27.5h40v8.6h-40v43.3H6.3V97H58.2z"/>
	<path class="st0" d="M248.6,176.1v9h-50.4V97h10.2v79.1H248.6z"/>
	<path class="st0" d="M283.3,97l-15.5,88.1h-10.2L273,97H283.3z"/>
	<path class="st0" d="M329.5,191.8c-25.5,0-46.3-20.8-46.3-46.3s20.8-46.3,46.3-46.3c25.5,0,46.3,20.8,46.3,46.3
		S355.1,191.8,329.5,191.8z M329.5,109.9c-19.7,0-35.7,16-35.7,35.7c0,19.7,16,35.7,35.7,35.7c19.7,0,35.7-16,35.7-35.7
		C365.2,125.9,349.2,109.9,329.5,109.9z"/>
</g>
</svg>
