<?xml version="1.0" encoding="utf-8"?>
<!-- Generator: Adobe Illustrator 21.0.2, SVG Export Plug-In . SVG Version: 6.00 Build 0)  -->
<svg version="1.1" id="Layer_1" xmlns="http://www.w3.org/2000/svg" xmlns:xlink="http://www.w3.org/1999/xlink" x="0px" y="0px"
	 viewBox="0 0 319.3 141.3" style="enable-background:new 0 0 319.3 141.3;" xml:space="preserve">
<style type="text/css">
	.st0{fill:url(#SVGID_1_);}
	.st1{fill:#FFFFFF;}
	.st2{fill:#CECBE6;}
	.st3{fill:url(#SVGID_2_);}
	.st4{fill:url(#SVGID_3_);}
	.st5{fill:url(#SVGID_4_);}
	.st6{fill:url(#SVGID_5_);}
	.st7{fill:url(#SVGID_6_);}
	.st8{fill:url(#SVGID_7_);}
	.st9{fill:url(#SVGID_8_);}
	.st10{fill:url(#SVGID_9_);}
	.st11{fill:url(#SVGID_10_);}
	.st12{fill:url(#SVGID_11_);}
	.st13{fill:url(#SVGID_12_);}
	.st14{fill:url(#SVGID_13_);}
	.st15{fill:url(#SVGID_14_);}
</style>
<g>
	<g>
		
			<linearGradient id="SVGID_1_" gradientUnits="userSpaceOnUse" x1="227.9278" y1="32.7591" x2="263.7294" y2="45.3994" gradientTransform="matrix(1 0 0 -1 0 138.72)">
			<stop  offset="0" style="stop-color:#F69799"/>
			<stop  offset="1" style="stop-color:#FFE2AA"/>
		</linearGradient>
		<path class="st0" d="M263.8,91.6c0-8.6-7-15.6-15.6-15.6s-15.6,7-15.6,15.6c0,1.3,0.1,2.5,0.4,3.7c-4.4,2.8-7.3,7.6-7.3,13.2
			c0,8.6,7,15.6,15.6,15.6s15.6-7,15.6-15.6c0-1.3-0.1-2.5-0.4-3.7c-1,0.7-2.1,1.2-3.3,1.6c0.1,0.7,0.2,1.4,0.2,2.1
			c0,6.6-5.4,12-12,12c-6.6,0-12-5.4-12-12c0-4,2-7.5,5-9.7c2.6,5,7.8,8.4,13.9,8.4c1.7,0,3.4-0.3,5-0.8c-0.2-1.2-0.6-2.3-1.2-3.4
			c-1.2,0.4-2.5,0.6-3.8,0.6c-4.6,0-8.7-2.7-10.7-6.5c1.2-0.4,2.5-0.6,3.8-0.6c4.6,0,8.7,2.7,10.7,6.5c1.2-0.4,2.2-1,3.2-1.6
			c-2.6-5-7.8-8.4-13.9-8.4c-1.7,0-3.4,0.3-5,0.8c-0.1-0.7-0.2-1.4-0.2-2.1c0-6.6,5.4-12,12-12c6.6,0,12,5.4,12,12c0,4-2,7.5-5,9.7
			c0.5,1.1,1,2.2,1.3,3.4C260.9,102,263.8,97.1,263.8,91.6z"/>
		<path class="st1" d="M228.5,82c0,1.3-0.2,2.5-0.7,3.5c-0.5,1-1.1,1.9-2,2.6c-0.8,0.7-1.9,1.2-3.1,1.6c-1.2,0.3-2.5,0.5-4,0.5h-3.2
			v9.7h-3l0-25.5h6.3c1.4,0,2.6,0.1,3.8,0.4c1.2,0.3,2.2,0.8,3.1,1.4s1.6,1.4,2.1,2.4C228.3,79.5,228.5,80.6,228.5,82z M225.4,82
			c0-1-0.2-1.9-0.6-2.6c-0.4-0.7-0.9-1.2-1.5-1.6c-0.6-0.4-1.3-0.6-2.1-0.8c-0.8-0.1-1.6-0.2-2.5-0.2h-3.1v10.9h2.6
			c1,0,2-0.1,2.8-0.3c0.9-0.2,1.6-0.5,2.3-0.9c0.6-0.4,1.2-1,1.5-1.8C225.3,84,225.4,83.1,225.4,82z"/>
		<path class="st1" d="M279.9,89l6.3,10.9h-3.8l-5.3-10.3h-4.9v10.3h-3l0-25.5h7.2c2.9,0,5.1,0.7,6.6,2s2.3,3.1,2.3,5.3
			c0,2.1-0.5,3.6-1.4,4.9C283,87.6,281.7,88.5,279.9,89z M282.3,81.7c0-0.8-0.1-1.6-0.4-2.2s-0.7-1.1-1.2-1.5
			c-0.5-0.4-1.1-0.7-1.7-0.9c-0.7-0.2-1.4-0.3-2.1-0.3h-4.6v10.3h3.5c1.1,0,2.1-0.1,2.9-0.3s1.5-0.5,2.1-0.9c0.5-0.4,1-1,1.2-1.7
			C282.2,83.6,282.3,82.7,282.3,81.7z"/>
		<path class="st1" d="M297.9,99.8h-3V76.9h-8.7v-2.5h20.3v2.5h-8.7V99.8z"/>
		<path class="st1" d="M221.6,101.4v2.5h-12.1v7.9h11.6v2.5h-11.6v12.5h-3v-25.5L221.6,101.4L221.6,101.4z"/>
		<path class="st1" d="M276.7,124.2v2.6h-14.6v-25.5h3v22.9H276.7z"/>
		<path class="st1" d="M286.7,101.4l-4.5,25.5h-3l4.5-25.5H286.7z"/>
		<path class="st2" d="M300.1,128.8c-7.4,0-13.4-6-13.4-13.4c0-7.4,6-13.4,13.4-13.4c7.4,0,13.4,6,13.4,13.4
			C313.5,122.8,307.4,128.8,300.1,128.8z M300.1,105.1c-5.7,0-10.3,4.6-10.3,10.3c0,5.7,4.6,10.3,10.3,10.3s10.3-4.6,10.3-10.3
			C310.4,109.7,305.8,105.1,300.1,105.1z"/>
	</g>
	<g>
		
			<linearGradient id="SVGID_2_" gradientUnits="userSpaceOnUse" x1="6.5167" y1="100.5005" x2="44.0167" y2="100.5005" gradientTransform="matrix(1 0 0 -1 0 138.72)">
			<stop  offset="0" style="stop-color:#D2E5A4"/>
			<stop  offset="0.3416" style="stop-color:#D4E6A7;stop-opacity:0.6584"/>
			<stop  offset="0.5791" style="stop-color:#DAE9AF;stop-opacity:0.4209"/>
			<stop  offset="0.785" style="stop-color:#E5EEBC;stop-opacity:0.215"/>
			<stop  offset="0.9718" style="stop-color:#F3F6CF;stop-opacity:2.819324e-02"/>
			<stop  offset="1" style="stop-color:#F5F7D2;stop-opacity:0"/>
		</linearGradient>
		<polygon class="st3" points="6.5,40.6 44,55.7 44,49.5 15,38.4 15,38.3 44,27.1 44,20.8 6.5,36 		"/>
		
			<linearGradient id="SVGID_3_" gradientUnits="userSpaceOnUse" x1="53.3776" y1="106.1505" x2="86.2448" y2="106.1505" gradientTransform="matrix(1 0 0 -1 0 138.72)">
			<stop  offset="0" style="stop-color:#D2E5A4"/>
			<stop  offset="0.3416" style="stop-color:#D4E6A7;stop-opacity:0.6584"/>
			<stop  offset="0.5791" style="stop-color:#DAE9AF;stop-opacity:0.4209"/>
			<stop  offset="0.785" style="stop-color:#E5EEBC;stop-opacity:0.215"/>
			<stop  offset="0.9718" style="stop-color:#F3F6CF;stop-opacity:2.819324e-02"/>
			<stop  offset="1" style="stop-color:#F5F7D2;stop-opacity:0"/>
		</linearGradient>
		<path class="st4" d="M86.2,55.7V36.6C86.2,27.2,80.8,23,74,23c-3.3,0-7.5,1.2-10.3,4.5h-0.1v-18H53.4v46.2h10.2V36.3
			c0-4.8,3.9-6.3,6.5-6.3c4.4,0,5.9,3.2,5.9,7.2v18.5C76,55.7,86.2,55.7,86.2,55.7z"/>
		
			<linearGradient id="SVGID_4_" gradientUnits="userSpaceOnUse" x1="92.8698" y1="99.0005" x2="124.6315" y2="99.0005" gradientTransform="matrix(1 0 0 -1 0 138.72)">
			<stop  offset="0" style="stop-color:#D2E5A4"/>
			<stop  offset="0.3416" style="stop-color:#D4E6A7;stop-opacity:0.6584"/>
			<stop  offset="0.5791" style="stop-color:#DAE9AF;stop-opacity:0.4209"/>
			<stop  offset="0.785" style="stop-color:#E5EEBC;stop-opacity:0.215"/>
			<stop  offset="0.9718" style="stop-color:#F3F6CF;stop-opacity:2.819324e-02"/>
			<stop  offset="1" style="stop-color:#F5F7D2;stop-opacity:0"/>
		</linearGradient>
		<path class="st5" d="M124.1,48.2V36.4c0-7-3.2-13.3-15.2-13.3c-6,0-10.8,1.4-13.3,2.7l1.9,5.5c2.5-1.3,5.9-2.2,9.5-2.2
			c5.6,0,6.9,2.4,6.9,5.6c-12.2,0-21,3.9-21,12.1c0,5.2,4.4,9.6,11.5,9.6c4.3,0,8-1.4,10.2-4h0.2l0.6,3.3h9.2
			C124.2,53.8,124.1,51,124.1,48.2z"/>
		
			<linearGradient id="SVGID_5_" gradientUnits="userSpaceOnUse" x1="132.9167" y1="99.4005" x2="166.0592" y2="99.4005" gradientTransform="matrix(1 0 0 -1 0 138.72)">
			<stop  offset="0" style="stop-color:#D2E5A4"/>
			<stop  offset="0.3416" style="stop-color:#D4E6A7;stop-opacity:0.6584"/>
			<stop  offset="0.5791" style="stop-color:#DAE9AF;stop-opacity:0.4209"/>
			<stop  offset="0.785" style="stop-color:#E5EEBC;stop-opacity:0.215"/>
			<stop  offset="0.9718" style="stop-color:#F3F6CF;stop-opacity:2.819324e-02"/>
			<stop  offset="1" style="stop-color:#F5F7D2;stop-opacity:0"/>
		</linearGradient>
		<path class="st6" d="M166,55.7V36.1c0-9-5.5-13.1-12.5-13.1c-5.6,0-9.4,2.6-11.1,5h-0.2l-0.5-4.3h-8.8c0.1,2.8,0.3,5.9,0.3,9.6
			v22.4h10.2v-19c0-4.9,3.8-6.7,6.6-6.7c4.4,0,5.9,3.1,5.9,7v18.7H166z"/>
		
			<linearGradient id="SVGID_6_" gradientUnits="userSpaceOnUse" x1="173.1167" y1="99.1005" x2="206.1167" y2="99.1005" gradientTransform="matrix(1 0 0 -1 0 138.72)">
			<stop  offset="0" style="stop-color:#D2E5A4"/>
			<stop  offset="0.3416" style="stop-color:#D4E6A7;stop-opacity:0.6584"/>
			<stop  offset="0.5791" style="stop-color:#DAE9AF;stop-opacity:0.4209"/>
			<stop  offset="0.785" style="stop-color:#E5EEBC;stop-opacity:0.215"/>
			<stop  offset="0.9718" style="stop-color:#F3F6CF;stop-opacity:2.819324e-02"/>
			<stop  offset="1" style="stop-color:#F5F7D2;stop-opacity:0"/>
		</linearGradient>
		<path class="st7" d="M202.7,48.6c-2.6,0.7-5.6,1.3-9.4,1.3c-5.5,0-10.2-2.2-10.5-7.6h23c0.2-0.9,0.3-2.1,0.3-3.4
			c0-10.4-6.1-15.9-15.4-15.9c-11.3,0-17.6,7.9-17.6,17.1c0,9.9,6.8,16.2,18.6,16.2c4.8,0,9.3-0.7,12.4-1.8L202.7,48.6z"/>
		
			<linearGradient id="SVGID_7_" gradientUnits="userSpaceOnUse" x1="213.071" y1="98.7005" x2="246.0065" y2="98.7005" gradientTransform="matrix(1 0 0 -1 0 138.72)">
			<stop  offset="0" style="stop-color:#D2E5A4"/>
			<stop  offset="0.3416" style="stop-color:#D4E6A7;stop-opacity:0.6584"/>
			<stop  offset="0.5791" style="stop-color:#DAE9AF;stop-opacity:0.4209"/>
			<stop  offset="0.785" style="stop-color:#E5EEBC;stop-opacity:0.215"/>
			<stop  offset="0.9718" style="stop-color:#F3F6CF;stop-opacity:2.819324e-02"/>
			<stop  offset="1" style="stop-color:#F5F7D2;stop-opacity:0"/>
		</linearGradient>
		<path class="st8" d="M245.6,46V23.7h-10.2v19.7c0,3.6-3,6-6.3,6c-4.2,0-5.9-3-5.9-7.9V23.7H213v19.1c0,9.6,5,13.6,12.3,13.6
			c5.9,0,9.5-2.8,11-4.9h0.2l0.5,4.3h8.9C245.9,53,245.6,49.8,245.6,46z"/>
		
			<linearGradient id="SVGID_8_" gradientUnits="userSpaceOnUse" x1="254.9167" y1="106.1505" x2="265.1374" y2="106.1505" gradientTransform="matrix(1 0 0 -1 0 138.72)">
			<stop  offset="0" style="stop-color:#D2E5A4"/>
			<stop  offset="0.3416" style="stop-color:#D4E6A7;stop-opacity:0.6584"/>
			<stop  offset="0.5791" style="stop-color:#DAE9AF;stop-opacity:0.4209"/>
			<stop  offset="0.785" style="stop-color:#E5EEBC;stop-opacity:0.215"/>
			<stop  offset="0.9718" style="stop-color:#F3F6CF;stop-opacity:2.819324e-02"/>
			<stop  offset="1" style="stop-color:#F5F7D2;stop-opacity:0"/>
		</linearGradient>
		<rect x="254.9" y="9.5" class="st9" width="10.2" height="46.2"/>
		
			<linearGradient id="SVGID_9_" gradientUnits="userSpaceOnUse" x1="274.4167" y1="100.5005" x2="311.9792" y2="100.5005" gradientTransform="matrix(1 0 0 -1 0 138.72)">
			<stop  offset="0" style="stop-color:#D2E5A4"/>
			<stop  offset="0.3416" style="stop-color:#D4E6A7;stop-opacity:0.6584"/>
			<stop  offset="0.5791" style="stop-color:#DAE9AF;stop-opacity:0.4209"/>
			<stop  offset="0.785" style="stop-color:#E5EEBC;stop-opacity:0.215"/>
			<stop  offset="0.9718" style="stop-color:#F3F6CF;stop-opacity:2.819324e-02"/>
			<stop  offset="1" style="stop-color:#F5F7D2;stop-opacity:0"/>
		</linearGradient>
		<polygon class="st10" points="311.9,35.6 274.4,20.8 274.4,27 304.4,38.2 304.4,38.3 274.4,49.5 274.4,55.7 311.9,41 		"/>
		
			<linearGradient id="SVGID_10_" gradientUnits="userSpaceOnUse" x1="6.5167" y1="31.4505" x2="44.0167" y2="31.4505" gradientTransform="matrix(1 0 0 -1 0 138.72)">
			<stop  offset="0" style="stop-color:#D2E5A4"/>
			<stop  offset="0.3416" style="stop-color:#D4E6A7;stop-opacity:0.6584"/>
			<stop  offset="0.5791" style="stop-color:#DAE9AF;stop-opacity:0.4209"/>
			<stop  offset="0.785" style="stop-color:#E5EEBC;stop-opacity:0.215"/>
			<stop  offset="0.9718" style="stop-color:#F3F6CF;stop-opacity:2.819324e-02"/>
			<stop  offset="1" style="stop-color:#F5F7D2;stop-opacity:0"/>
		</linearGradient>
		<polygon class="st11" points="6.5,109.6 44,124.8 44,118.5 15,107.4 15,107.3 44,96.1 44,89.8 6.5,105 		"/>
		
			<linearGradient id="SVGID_11_" gradientUnits="userSpaceOnUse" x1="48.9586" y1="35.2005" x2="74.0221" y2="35.2005" gradientTransform="matrix(1 0 0 -1 0 138.72)">
			<stop  offset="0" style="stop-color:#D2E5A4"/>
			<stop  offset="0.3416" style="stop-color:#D4E6A7;stop-opacity:0.6584"/>
			<stop  offset="0.5791" style="stop-color:#DAE9AF;stop-opacity:0.4209"/>
			<stop  offset="0.785" style="stop-color:#E5EEBC;stop-opacity:0.215"/>
			<stop  offset="0.9718" style="stop-color:#F3F6CF;stop-opacity:2.819324e-02"/>
			<stop  offset="1" style="stop-color:#F5F7D2;stop-opacity:0"/>
		</linearGradient>
		<polygon class="st12" points="48.9,127.3 55.8,127.3 74,79.8 67.1,79.8 		"/>
		
			<linearGradient id="SVGID_12_" gradientUnits="userSpaceOnUse" x1="78.3167" y1="37.1505" x2="111.1839" y2="37.1505" gradientTransform="matrix(1 0 0 -1 0 138.72)">
			<stop  offset="0" style="stop-color:#D2E5A4"/>
			<stop  offset="0.3416" style="stop-color:#D4E6A7;stop-opacity:0.6584"/>
			<stop  offset="0.5791" style="stop-color:#DAE9AF;stop-opacity:0.4209"/>
			<stop  offset="0.785" style="stop-color:#E5EEBC;stop-opacity:0.215"/>
			<stop  offset="0.9718" style="stop-color:#F3F6CF;stop-opacity:2.819324e-02"/>
			<stop  offset="1" style="stop-color:#F5F7D2;stop-opacity:0"/>
		</linearGradient>
		<path class="st13" d="M98.9,92c-3.3,0-7.5,1.2-10.3,4.5h-0.1v-18H78.3v46.2h10.2v-19.4c0-4.8,3.9-6.3,6.5-6.3
			c4.4,0,5.9,3.2,5.9,7.2v18.5h10.2v-19.2C111.2,96.2,105.8,92,98.9,92z"/>
		
			<linearGradient id="SVGID_13_" gradientUnits="userSpaceOnUse" x1="117.8167" y1="30.0005" x2="149.5802" y2="30.0005" gradientTransform="matrix(1 0 0 -1 0 138.72)">
			<stop  offset="0" style="stop-color:#D2E5A4"/>
			<stop  offset="0.3416" style="stop-color:#D4E6A7;stop-opacity:0.6584"/>
			<stop  offset="0.5791" style="stop-color:#DAE9AF;stop-opacity:0.4209"/>
			<stop  offset="0.785" style="stop-color:#E5EEBC;stop-opacity:0.215"/>
			<stop  offset="0.9718" style="stop-color:#F3F6CF;stop-opacity:2.819324e-02"/>
			<stop  offset="1" style="stop-color:#F5F7D2;stop-opacity:0"/>
		</linearGradient>
		<path class="st14" d="M149,105.4c0-7-3.2-13.3-15.2-13.3c-6,0-10.8,1.4-13.3,2.7l1.9,5.5c2.5-1.3,5.9-2.2,9.5-2.2
			c5.6,0,6.9,2.4,6.9,5.6c-12.2,0-21,3.9-21,12.1c0,5.2,4.4,9.6,11.5,9.6c4.3,0,8-1.4,10.2-4h0.2l0.6,3.3h9.2
			c-0.4-2-0.6-4.8-0.6-7.6v-11.7H149z"/>
		
			<linearGradient id="SVGID_14_" gradientUnits="userSpaceOnUse" x1="157.8375" y1="30.3005" x2="190.9811" y2="30.3005" gradientTransform="matrix(1 0 0 -1 0 138.72)">
			<stop  offset="0" style="stop-color:#D2E5A4"/>
			<stop  offset="0.3416" style="stop-color:#D4E6A7;stop-opacity:0.6584"/>
			<stop  offset="0.5791" style="stop-color:#DAE9AF;stop-opacity:0.4209"/>
			<stop  offset="0.785" style="stop-color:#E5EEBC;stop-opacity:0.215"/>
			<stop  offset="0.9718" style="stop-color:#F3F6CF;stop-opacity:2.819324e-02"/>
			<stop  offset="1" style="stop-color:#F5F7D2;stop-opacity:0"/>
		</linearGradient>
		<path class="st15" d="M178.5,92.1c-5.6,0-9.4,2.6-11.1,5h-0.2l-0.5-4.3h-8.8c0.1,2.8,0.3,5.9,0.3,9.6v22.4h10.2v-19
			c0-4.9,3.8-6.7,6.6-6.7c4.4,0,5.9,3.1,5.9,7v18.7h10.2v-19.7C191,96.2,185.5,92.1,178.5,92.1z"/>
	</g>
</g>
</svg>
