<?xml version="1.0" encoding="utf-8"?>
<!-- Generator: Adobe Illustrator 21.0.2, SVG Export Plug-In . SVG Version: 6.00 Build 0)  -->
<svg version="1.1" id="레이어_1" xmlns="http://www.w3.org/2000/svg" xmlns:xlink="http://www.w3.org/1999/xlink" x="0px"
	 y="0px" viewBox="0 0 1175.3 220" style="enable-background:new 0 0 1175.3 220;" xml:space="preserve">
<style type="text/css">
	.st0{fill:#FFFFFF;}
	.st1{fill:#A4D55D;}
</style>
<g>
	<path class="st0" d="M174.4,18.3h-18.6v11.3v19.5v47H67.3V18.3H27.6v160.2c0,11.6,9.4,21,21,21h18.6v-11.3v-19.5v-47.6h88.5v78.4
		h39.7V39.4C195.4,27.8,186,18.3,174.4,18.3z"/>
	<g>
		<path class="st0" d="M532.9,18.3L532.9,18.3l-88.7,0v0h-18.6c-11.6,0-21,9.4-21,21c0,0,0,0,0,0c0,0,0,0,0,0V58v141.5h39.7V58h88.7
			v120.5c0,0,0,0,0,0s0,0,0,0c0,11,8.4,20,19.2,20.9h3.7h16.8v-11.2v-19.5V58V18.3v0H532.9z"/>
	</g>
	<g>
		<path class="st0" d="M917.8,199.5L917.8,199.5l-88.7,0v0h-18.6c-11.6,0-21-9.4-21-21c0,0,0,0,0,0c0,0,0,0,0,0v-18.6V18.3h39.7
			v141.5h88.7V39.3c0,0,0,0,0,0s0,0,0,0c0-11,8.4-20,19.2-20.9h3.7h16.8v11.2v19.5v110.8v39.7v0H917.8z"/>
	</g>
	<path class="st0" d="M744,58.1C744,58.1,744,58.1,744,58.1C744,58.1,744,58.1,744,58.1c11.6,0,21.1-9.4,21.1-21V18.3h-11.5h-19H597
		v0.5v39.2v101.5v18.9c0,11.6,9.4,21,21,21h18.6H765v-39.8H636.7v-0.2v-14.3v-23.6h110.1V96.7H636.7V58.1H744z"/>
	<path class="st1" d="M380.1,134v-10.7c-0.9-24.6-11.5-103-109-104.9v-0.1H252h-22.1h-10v17.9c0,11.4,9.1,20.7,20.5,21
		c0,0,0.1,0,0.1,0h0.9c0,0,0.1,0,0.1,0h26.7c7.9-0.3,72.1-0.6,72.1,72.8v31c0,0-59.4,2.2-73.1-36.4h7.5h15.8c0,0,0.1,0,0.1,0
		s0.1,0,0.1,0c11.5,0,20.8-9.3,20.9-20.8c0-0.1,0-0.2,0-0.2c0-0.1,0-0.2,0-0.2v-3.3h0h-0.3h-36.6h-4.8h-43.4h-6.5v0.2c0,0,0,0,0,0.1
		v0.6h0c0.2,8.8,4.6,98.7,120.5,98.7h39.7L380.1,134L380.1,134z"/>
	<g>
		<path class="st0" d="M1128.9,159.9c-0.1,0-0.1,0-0.2,0h0.4C1129.1,159.9,1129,159.9,1128.9,159.9z"/>
		<path class="st0" d="M1129.1,159.9h-0.4h-107.1V18.3H982v160.2c0,11.6,9.4,21,21,21h18.6h97.5h19.5h11.3v-18.6
			C1150,169.4,1140.6,160,1129.1,159.9z"/>
	</g>
</g>
</svg>
