<?xml version="1.0" encoding="utf-8"?>
<!-- Generator: Adobe Illustrator 21.0.2, SVG Export Plug-In . SVG Version: 6.00 Build 0)  -->
<svg version="1.1" id="Layer_1" xmlns="http://www.w3.org/2000/svg" xmlns:xlink="http://www.w3.org/1999/xlink" x="0px" y="0px"
	 viewBox="0 0 385.3 202.8" style="enable-background:new 0 0 385.3 202.8;" xml:space="preserve">
<style type="text/css">
	.st0{fill:url(#SVGID_1_);}
	.st1{fill:#FFFFFF;}
	.st2{fill:#CECBE6;}
</style>
<g>
	<linearGradient id="SVGID_1_" gradientUnits="userSpaceOnUse" x1="79.2093" y1="118.8592" x2="202.9961" y2="75.1545">
		<stop  offset="0" style="stop-color:#F69799"/>
		<stop  offset="1" style="stop-color:#FFE2AA"/>
	</linearGradient>
	<path class="st0" d="M203.2,69.1c0-29.7-24.2-53.9-53.9-53.9c-29.7,0-53.9,24.2-53.9,53.9c0,4.4,0.5,8.7,1.5,12.8
		c-15.1,9.6-25.1,26.4-25.1,45.5c0,29.7,24.2,53.9,53.9,53.9c29.7,0,53.9-24.2,53.9-53.9c0-4.4-0.5-8.7-1.5-12.8
		c-3.6,2.3-7.4,4.1-11.5,5.5c0.4,2.4,0.7,4.8,0.7,7.3c0,22.9-18.6,41.5-41.5,41.5c-22.9,0-41.5-18.6-41.5-41.5
		c0-13.8,6.8-26.1,17.2-33.6c9,17.3,27,29.2,47.9,29.2c6,0,11.9-1,17.3-2.9c-0.7-4.1-2.1-8.1-4-11.7c-4.2,1.4-8.7,2.2-13.3,2.2
		c-16,0-30-9.2-36.9-22.5c4.2-1.4,8.7-2.2,13.3-2.2c16,0,30,9.2,36.9,22.5c4-1.3,7.7-3.3,11-5.7c-9-17.3-27-29.2-47.9-29.2
		c-6,0-11.9,1-17.3,2.9c-0.4-2.4-0.7-4.8-0.7-7.3c0-22.9,18.6-41.5,41.5-41.5c22.9,0,41.5,18.6,41.5,41.5c0,13.8-6.8,26.1-17.2,33.6
		c1.9,3.7,3.4,7.7,4.5,11.9C193.2,105.1,203.2,88.2,203.2,69.1z"/>
	<path class="st1" d="M81.3,35.9c0,4.6-0.8,8.6-2.4,12.2c-1.6,3.5-3.9,6.5-6.8,8.9c-2.9,2.4-6.5,4.2-10.6,5.5
		c-4.1,1.2-8.8,1.9-13.9,1.9H36.7v33.4H26.4L26.3,9.6H48c4.7,0,9,0.5,13.1,1.5c4,1,7.6,2.6,10.6,4.7c3,2.1,5.4,4.9,7.1,8.2
		C80.5,27.3,81.3,31.3,81.3,35.9z M70.6,36.1c0-3.6-0.7-6.6-2-9c-1.3-2.3-3-4.1-5.2-5.5c-2.1-1.3-4.6-2.2-7.4-2.7
		c-2.8-0.5-5.7-0.8-8.7-0.8H36.5v37.7h9.1c3.5,0,6.8-0.3,9.8-0.9c3.1-0.6,5.7-1.7,8-3.2c2.2-1.5,4-3.5,5.3-6.1S70.6,39.9,70.6,36.1z
		"/>
	<path class="st1" d="M258.9,60.1l21.8,37.6h-13l-18.3-35.7h-17.1v35.7h-10.2L222,9.6H247c10,0,17.6,2.3,22.8,6.8
		c5.2,4.5,7.8,10.6,7.8,18.2c0,7.1-1.6,12.6-4.8,16.8C269.6,55.5,265,58.4,258.9,60.1z M267.2,34.8c0-2.9-0.5-5.5-1.5-7.6
		c-1-2.1-2.4-3.8-4.1-5.2c-1.7-1.4-3.8-2.3-6-3c-2.3-0.6-4.8-0.9-7.4-0.9h-15.9v35.6h12.2c3.8,0,7.1-0.3,9.9-0.9
		c2.8-0.6,5.2-1.6,7.1-3.1c1.9-1.4,3.3-3.4,4.3-5.8C266.7,41.5,267.2,38.5,267.2,34.8z"/>
	<path class="st1" d="M321,97.6h-10.2V18.3h-30.1V9.6h70.3v8.7H321V97.6z"/>
	<path class="st1" d="M57.3,102.9v8.7H15.6V139h40v8.6h-40v43.3H5.4v-88.1H57.3z"/>
	<path class="st1" d="M247.7,182v9h-50.4v-88.1h10.2V182H247.7z"/>
	<path class="st1" d="M282.3,102.9l-15.5,88.1h-10.2l15.5-88.1H282.3z"/>
	<path class="st2" d="M328.6,197.7c-25.5,0-46.3-20.8-46.3-46.3s20.8-46.3,46.3-46.3c25.5,0,46.3,20.8,46.3,46.3
		S354.1,197.7,328.6,197.7z M328.6,115.7c-19.7,0-35.7,16-35.7,35.7c0,19.7,16,35.7,35.7,35.7c19.7,0,35.7-16,35.7-35.7
		C364.3,131.7,348.3,115.7,328.6,115.7z"/>
</g>
</svg>
