<?xml version="1.0" encoding="utf-8"?>
<!-- Generator: Adobe Illustrator 21.0.2, SVG Export Plug-In . SVG Version: 6.00 Build 0)  -->
<svg version="1.1" id="Layer_1" xmlns="http://www.w3.org/2000/svg" xmlns:xlink="http://www.w3.org/1999/xlink" x="0px" y="0px"
	 viewBox="0 0 396 553" style="enable-background:new 0 0 396 553;" xml:space="preserve">
<style type="text/css">
	.st0{fill:none;}
	.st1{fill:#0B0B0B;}
	.st2{fill:#F8F3A6;}
	.st3{fill:#D1E6B6;}
	.st4{fill:#F0EFEF;}
	.st5{fill:#35262B;}
	.st6{fill:#242221;}
	.st7{fill:#2B2927;}
	.st8{fill:#EE3324;}
	.st9{fill:#EFE92C;}
	.st10{fill:#FFFFFF;}
</style>
<path class="st0" d="M121,219.5c-6.6,4.1-15.2,1.7-20.9,7c5.2,9.6,13,14.8,24.7,11.9c0.6-0.2,1.3-0.1,2,0c2.9,0.5,3.3-1,3.2-3.4
	c-0.3-4.7-1.8-9-3.5-13.4C125.5,218.6,123.5,218,121,219.5z"/>
<path class="st0" d="M199,307.5c0-0.6,0-1.1,0.1-1.7C199,306.3,199,306.9,199,307.5z"/>
<path class="st0" d="M131.6,302.9c-0.2,0.1-0.4,0.2-0.5,0.3C131.2,303.1,131.4,303,131.6,302.9z"/>
<path class="st1" d="M389.9,306.8c-0.8-16.9-4.8-33.3-10.4-49.1c-13.2-37.7-32.9-72.2-54.6-105.5c-14.4-22.1-32.5-41.1-51.8-59.2
	c-14.3-13.5-29-26.5-44.1-39c-13.4-11-27.3-21.5-42.2-30.7C165.5,9.9,142.4,6.1,118.3,6.4c-12.5,0.1-25.2,2.4-37.5,5.3
	c-29.5,7-52.1,23.7-66.4,50.7c-19.3,36.5-8.4,74.4,27,95.5c6.8,4.1,13.6,8.4,20.3,12.7c8.6,5.4,17.4,10.3,26.7,14.4
	c1.6,0.7,4.8,1,3.2,4.3c-1.6,3.1-6.4,5.8-1.1,9.6c0.1,0.1-0.2,0.9-0.3,1.4c-0.9,3.7-1.5,7.4-3.3,10.9c-1.3,2.6-2.8,5.6-2.5,8.3
	c0.2,2.3,4.1,1.7,6,3.3c0.2,0.2,0.4,0.5,0.7,0.8c-2,1.5-4.2,1.6-6.6,1.3c-3-0.4-6,0.1-8.7,1.4c-7.1,3.4-12.8,8.5-17.1,15
	c-4.1,6.2-6.9,12.9-5.2,20.7c3.2,14.1,10.1,20.7,25.2,22.9c4,0.6,5.9,1.9,6.8,6.1c1.5,8,6,10.2,13.8,8c2.9-0.8,5.5-2.2,7.8-4.1
	c4.1-6,3.1-12.9,3.1-20c3.8,1.5,7.4,1,11.7,1.3c-4.3,7.8-9.2,14.6-14.7,20.8c-2,3.5-4.7,6.3-7.4,9.3c-11.6,13.1-25.6,23.3-38.9,34.3
	c-15.3,12.6-27.5,27.6-34.9,46c-8.6,21.2-9.6,43.4-6.3,65.7c3.6,24.8,16.4,44.4,34.9,60.9c22,19.6,48.3,28.6,76.8,32.2
	c17.8,2.2,35.6,1.7,53.4,0.6c31.3-1.9,60.4-10.3,86.7-27.9c11.3-7.5,21.4-16.5,31.4-25.5c19.1-17.2,37.2-35.4,50.9-57.4
	c15.5-24.9,23-52.8,30.4-80.7C388.3,339,390.7,323.1,389.9,306.8z M276.9,104.3c2.7,3.3,6,6.2,9.2,9.4c-14.4,15.6-29.6,30.4-47.5,42
	c-14.8,9.6-30.4,17.7-46.8,24.4c-9,3.6-17.7,7.8-26.2,12.5c-9.5,5.2-19.6,9.1-29.4,13.6c-7.4,3.5-14.8,7.2-22.2,10.8
	c-3.3,1.6-5.6,1.6-7.2-2.6c-2.2-6-5.2-11.7-7.8-17.6c-0.8-1.8-1.8-3.2,1.4-3.9c10.3-2,20.1-6.1,29.7-10.1
	c17.8-7.3,35.3-15.3,53-22.9c19.2-8.2,38.2-16.8,56.1-27.5c12.2-7.2,23.3-15.9,31.3-27.9C272.6,101.3,274.3,101.2,276.9,104.3z
	 M126.6,221.7c1.6,4.4,3.2,8.7,3.5,13.4c0.1,2.4-0.3,3.9-3.2,3.4c-0.6-0.1-1.4-0.2-2,0c-11.7,2.9-19.5-2.2-24.7-11.9
	c5.6-5.3,14.3-2.9,20.9-7C123.5,218,125.5,218.6,126.6,221.7z M87.6,179.1c-17.7-7.8-33.9-18.3-50-28.9c-13.6-9-23.6-21.7-26.8-38.5
	c-1-5-1.9-10.1-1.7-15.3c1.2-16.8,7.1-31.8,17.4-45C41,32.6,59.9,20.2,83.5,15.6c12.1-2.4,24.4-4.5,36.7-5.1
	c9.1-0.5,18.3,2.2,27.5,2.9C167,15,182.1,25.7,197.9,35c0.8,0.5,1.9,1,2.4,1.7c5.8,10.1,17,14,25,21.5
	c13.8,12.9,29.3,23.9,42.3,37.6c1.7,1.8,2,2.9,0.3,4.9c-10.7,13.5-24.2,23.1-39.2,31.4c-21,11.7-43.6,19.8-65.3,30
	c-19.3,9.1-38.8,18-58.9,25.1c-2.7,0.9-4,2.1-6.3-1.5C96.2,182.5,91.5,180.8,87.6,179.1z M86.7,217.8c7.8-3.9,5.8-11.7,8.8-17.7
	c2.9,7.1,5.7,13.8,8.5,20.8C97.9,221.7,92.8,219.9,86.7,217.8z M104.1,286.2c-0.2,5-5.5,9.2-10.3,7.8c-4.1-1.2-3.7-5.5-4.5-8.5
	c-0.6-2.3,2.6-1.8,4.1-2.2c5.8-1.4,5.9-1.2,10.7-5.1C104.1,281.3,104.2,283.7,104.1,286.2z M84,280c-16.8-1.7-24.4-7.2-25.6-22.5
	c-0.8-10.6,14.7-27.8,24.3-27.4c16,0.7,25.6,10.5,27.1,26.6C111,269,98,279.9,84,280z M115.7,272.1c-1.8,0-3.6,0-5.9,0
	c0.8-2,1.4-3.5,2.1-4.9c3.2-6.5,3.5-13.3,0.9-20c-0.9-2.3-0.8-2.9,2-3.3c16.9-2.3,17.9-1.3,14.4,15.4c-0.2,1-0.3,2-0.5,2.9
	C126.1,271.3,125,272.1,115.7,272.1z M65.6,515.6C48.8,503.4,36,488.1,29.3,469c-13.6-38.7-4.8-84.5,20.1-108.9
	c7.9,19.8,12.4,40.4,17.2,60.8c7.3,30.8,15.9,61.3,25.1,91.6c0.8,2.6-1.1,5.1,0.3,7.5c0.7,1.1-0.2,4.1,3,1.6
	c0.9-0.7,4.1,1.5,6.2,2.5c7,3.3,13.4,7.5,18.6,13.7C100.2,534.1,82,527.6,65.6,515.6z M379,353.2c-4.8,18.5-10.1,36.8-17.2,54.5
	c-7.2,18.1-17.8,34.2-30.7,48.9c-17.3,19.7-36.7,37.2-57.4,53.2c-18,13.9-38.7,22.2-60.8,27.2c-11.8,2.7-23.9,3.3-35.9,4
	c-11,0.7-21.9,1.1-32.9,0.2c-8.3-0.7-16-0.4-22.1-8c-6-7.3-14.8-11.4-23.5-15.1c-0.6-0.3-1.9,0.3-1.8-0.9
	c0.2-10.9-4.6-20.7-7.6-30.7c-9-29.6-15.5-59.7-23.8-89.5c-3.4-12.2-7.1-24.2-12-35.8c-1.6-3.8-0.4-6.2,2.3-8.5
	c10.6-8.8,21.4-17.4,31.6-26.7c19.4-17.4,37-36.4,45-61.8c4.8-15.2,5.2-30.9-2-45.9c-1.8-3.7,1.2-3.8,3-4.6
	c9.7-4.3,19.9-7.8,29.3-12.8c23.4-12.5,48.7-20.9,71.4-34.7c13.6-8.3,26.5-17.5,36.9-29.9c5.7-6.8,13-12.4,16.4-21.7
	c16.7,18.9,32.1,37.5,44.3,58.9c8.7,15.2,17.2,30.4,25.3,45.9c12.1,23.2,21.5,47.4,25.9,73.2C386.2,313,384.1,333.3,379,353.2z"/>
<path class="st2" d="M356.9,219.4c-8.1-15.5-16.6-30.7-25.3-45.9c-12.2-21.3-27.6-40-44.3-58.9c-3.4,9.3-10.7,14.9-16.4,21.7
	c-10.4,12.4-23.3,21.5-36.9,29.9c-22.7,13.8-48,22.2-71.4,34.7c-9.4,5-19.5,8.5-29.3,12.8c-1.8,0.8-4.7,0.9-3,4.6
	c7.2,15,6.8,30.8,2,45.9c-8.1,25.4-25.7,44.4-45,61.8c-10.3,9.2-21.1,17.8-31.6,26.7c-2.8,2.3-3.9,4.7-2.3,8.5
	c4.8,11.6,8.6,23.7,12,35.8c8.3,29.7,14.8,59.9,23.8,89.5c3,10.1,7.8,19.8,7.6,30.7c0,1.3,1.2,0.6,1.8,0.9
	c8.7,3.7,17.5,7.7,23.5,15.1c6.2,7.6,13.9,7.3,22.1,8c11,0.9,21.9,0.5,32.9-0.2c12-0.8,24.1-1.3,35.9-4c22.1-5,42.8-13.4,60.8-27.2
	c20.7-16,40.1-33.5,57.4-53.2c12.9-14.7,23.6-30.9,30.7-48.9c7-17.7,12.4-36,17.2-54.5c5.1-19.9,7.3-40.2,3.8-60.6
	C378.4,266.8,369,242.6,356.9,219.4z M76,360.9c-3.7-0.1-5.2-2.7-5.5-5.9c-0.5-4.9,2.1-9,5.4-9.1c3.8-0.2,6.1,2.4,6.3,6.7
	C82.3,356.9,79.5,360.9,76,360.9z M101.6,338.8c-4-0.4-5.5-3.2-5.4-7c0.1-4.2,3-7,6.8-6.9c4,0.2,4.3,2.9,4.4,5.5
	C107.3,335.5,104.8,339.2,101.6,338.8z M124.1,296.3c0.1-3.3,1.4-6.8,5.6-6.7c0.5,0,0.9,0,1.3,0.1c2.9,0.5,4.3,2.7,4.1,6
	c0,2.9-1.5,5.8-3.5,7.1c-0.2,0.1-0.4,0.2-0.5,0.3c-0.3,0.1-0.5,0.2-0.8,0.3c-0.4,0.1-0.7,0.1-1.1,0.1
	C124.9,303.1,124,299.6,124.1,296.3z M309.6,384.9c-4.4,4.7-9.5,8.3-15.7,10.2c-2,0.6-2.3,2.7-3.2,4.2c-5.6,8.9-11.5,17.1-21.4,22.3
	c-18,9.3-39.2,2.8-51.1-11.8c-6.2-7.6-6.1-7.8-13.6-1.2c-2.8,2.4-4.8,5.5-7.2,9.3c7,0.4,12,2.9,13,10.3c0.2,1.3,2.4,1.5,3.8,2.1
	c6.9,3,11.2,9.9,11,16.9c-0.1,1.6-0.1,3.3-1.3,4.1c-3.5,2.5-3.1,5.8-2.8,9.5c0.8,9.7-4.5,15-14.7,15.1c-5.8,0.1-9.2,3.5-11.5,8.1
	c-2.6,5.1-6.7,7.7-12.5,6.9c-1.2-0.2-2.3-1.2-3.7,0c-5.4,4.7-11.7,5.7-17.9,2.4c-7.3-3.9-11.7-10.1-11.9-18.9
	c-1.4-0.5-2.2,0.9-3.3,1.5c-6.5,3.7-13.6,0.1-14.3-7.3c-0.5-5.2-0.4-10.6,2.4-15c2.6-4.3,0-5.3-2.9-6.4c-5.6-2.1-7.9-6.2-7.6-12
	c0.3-6.6,3.8-10.8,10.3-12.1c1.5-0.3,3-0.5,4.5-0.5c3.3-0.1,5.3-0.5,5.9-4.9c1.3-8.9,11.1-13,18.9-8.7c2.8,1.5,5.5,3.1,7.8,5.2
	c10.1-9.7,18.2-13.1,25.4-3.1c3.4-4.7,7.7-8.4,13.2-10.3c2.8-1,1.3-2.4,0.8-3.7c-2.7-6.8-5.8-13.3-8.1-20.3
	c-3.7-11.2-4.9-22.7-5.4-34.2c-0.6-13.5,0-27,0.1-40.5c-1-1.3-2.1-1.8-3.1-0.2c-2.4,3.8-6.4,4.2-10.2,5.1c-4.5,1.6-9,3.3-13.5,4.8
	c-3.9,1.3-7,0.4-9.4-3.3c-3.5-5.4-7.3-10.6-11.1-15.9c-1.4-1.9-2.1-3.5-1.3-5.9c3.5-10,6-20.2,8.6-30.4c0.7-2.8,2.2-4.5,5.3-3.9
	c12,2.1,24,4.5,35.3,9.2c0.3-0.1,0.6-0.3,0.9-0.4c1.5-16.2,0.8-32.5,4.9-48.5c-0.6,16.2-1.3,32.4-1.9,48.6c0,0.3,0,0.7,0,1
	c0,4,0,8-0.2,12c-0.1,1.5,0.5,3.5-1.6,4.3c0.8,0.7,1.1,1.7,0.9,2.7c-1.3,10.3,0.9,20.6-0.3,30.9c0.1,1.2,0.2,2.5,0.3,3.9
	c0,0.5,0.1,1,0.1,1.5c34.5-10.7,66-2.5,96,15.8c0.3-10.2-0.9-19.7-1.6-29.3c-1.7-23.9-6.6-47.4-6.5-71.5c0-1,0-2,0-3
	c0-2.1,0.1-4.4,2.7-4.5c3.1-0.2,3.2,2.3,3.2,4.5c-0.2,13.5,1.5,26.9,3.1,40.2c3.1,25.6,5.7,51.2,5.7,77.1c0,13.1-3,25.7-6.8,38.1
	c-0.4,1.3-0.7,2.5-1.1,3.8c-0.1,0.3,0.1,0.6,0.3,1.2c4.5-1.7,7.5-5.2,10.9-8.3c2-1.8,4.8-5.7,7.3-2.7
	C316.3,382.1,311.4,383.1,309.6,384.9z"/>
<path class="st3" d="M98.3,185.9c2.2,3.6,3.6,2.4,6.3,1.5c20.2-7.1,39.7-16,58.9-25.1c21.7-10.2,44.3-18.3,65.3-30
	c15-8.3,28.5-17.9,39.2-31.4c1.6-2.1,1.3-3.2-0.3-4.9c-13.1-13.7-28.5-24.7-42.3-37.6c-8-7.5-19.1-11.4-25-21.5
	c-0.5-0.8-1.5-1.2-2.4-1.7c-15.8-9.3-30.9-20-50.1-21.6c-9.2-0.8-18.4-3.4-27.5-2.9c-12.3,0.7-24.6,2.8-36.7,5.1
	c-23.5,4.6-42.5,17-57.1,35.8C16.2,64.6,10.2,79.6,9,96.4c-0.2,5.2,0.8,10.3,1.7,15.3c3.2,16.8,13.2,29.5,26.8,38.5
	c16,10.6,32.2,21.1,50,28.9C91.5,180.8,96.2,182.5,98.3,185.9z M153.1,99.8c0,3.7,0,6.5,0,9.4c0,0.9-0.4,1.6-1.4,1.7
	c-1.4,0.1-1.7-0.9-1.7-1.9C150,105.8,150,102.7,153.1,99.8z M143.4,105.9c1.1-2.3,0.3-5.8,3.5-6.9c0.7-0.3,1.2,1,1,2.2
	c-1.7,1.9-0.3,5.5-3.3,6.9C143.8,108.4,142.9,106.9,143.4,105.9z M137.1,105.8c0-2.9,1.9-5.1,3-7.6c1.8,3.1-0.3,5.7-0.5,8.5
	c0,0.4-1,1-1.5,1C137,107.7,137.1,106.6,137.1,105.8z M115.5,56.1c8.4,0.1,18.6,10.8,18.4,19.4c-0.1,10-8.3,20.1-16.5,19.2
	C106,93.4,96.8,89.3,97,75.2C96.9,65.7,106.3,56,115.5,56.1z M35,109.7c-1.7-5.9,1.7-10.4,4.4-15.2C37.9,99.6,36.4,104.7,35,109.7z
	 M41,109.9c-1-3.6,1.4-6.4,2.4-9.5C44.6,104.1,42.9,107,41,109.9z M46,71.5c0.1-8.8,7.7-16.5,16.5-16.6c8.8-0.1,15.5,6.9,15.5,16.2
	C78.1,81.9,72.6,88,63,88C53.5,87.9,46,80.6,46,71.5z M84.2,144.8c-1.9,3.7-2.9,8.9-7.9,9.3c-5,0.5-5.5-5-7.9-7.9
	c-5.6-6.7-6.4-15.5-9.9-23.1c-2.8-6.1,1.9-11.3,8.6-9.8c9.3,2,18.6,0.8,27.8,0.5c6.1-0.2,12.3-0.5,18.4-0.4c3.4-1.3,6.7-0.7,9.9,0.8
	c3.7-1.1,5.3,1.1,4.7,4.1c-2.4,12-5.2,24-10.8,35c-3.4,6.9-8.7,7-12.5,0.2c-4.3-7.8-7.9-16-12-24.4
	C89.2,134.1,86.9,139.6,84.2,144.8z"/>
<path class="st3" d="M101.2,524c-2.1-1-5.3-3.2-6.2-2.5c-3.2,2.5-2.3-0.5-3-1.6c-1.4-2.5,0.5-4.9-0.3-7.5
	c-9.2-30.3-17.8-60.8-25.1-91.6c-4.8-20.4-9.3-40.9-17.2-60.8C24.5,384.5,15.7,430.2,29.3,469c6.7,19.1,19.5,34.4,36.3,46.6
	c16.4,12,34.6,18.5,54.2,22.1C114.7,531.6,108.3,527.3,101.2,524z"/>
<path class="st2" d="M239.1,132.6c-17.9,10.7-37,19.2-56.1,27.5c-17.7,7.6-35.2,15.6-53,22.9c-9.7,3.9-19.4,8-29.7,10.1
	c-3.1,0.6-2.2,2-1.4,3.9c2.7,5.8,5.6,11.6,7.8,17.6c1.6,4.2,3.8,4.2,7.2,2.6c7.4-3.6,14.7-7.3,22.2-10.8c9.8-4.6,20-8.5,29.4-13.6
	c8.5-4.7,17.3-8.9,26.2-12.5c16.4-6.6,32-14.8,46.8-24.4c17.9-11.6,33.1-26.4,47.5-42c-3.2-3.2-6.4-6.1-9.2-9.4
	c-2.6-3.1-4.3-3-6.5,0.3C262.4,116.7,251.2,125.3,239.1,132.6z"/>
<path class="st4" d="M109.9,256.7c-1.5-16-11.1-25.8-27.1-26.6c-9.7-0.4-25.2,16.8-24.3,27.4c1.2,15.2,8.8,20.8,25.6,22.5
	C98,279.9,111,269,109.9,256.7z M84.1,259c3.7,5.9,0.3,11.8-7.3,11.8c-0.8-0.3-2.3-0.6-3.6-1.2c-1.1-0.5-1.7-1.6-1.1-2.9
	c0.5-1,1.4-1.4,2.4-1.3c1,0.2,1.9,0.6,2.9,0.6c1.9,0,4-0.7,4.5-2.5c0.6-2.1-1.9-2.3-3.2-3.1c-0.8-0.5-1.9-0.5-2.8-0.9
	c-1.1-0.5-2-1.2-1.8-2.6c0.2-1.5,1.3-1.9,2.5-1.8c3.7,0.3,6.9-0.4,7-4.9c0-4.3-3-5.9-6.9-6.2c-0.9-0.1-2.3,0.4-2.4-1
	c-0.1-1.6,1.2-1.8,2.4-1.8c3.5-0.1,6.6,0.9,8.6,4c2.1,3.3,2.4,6.8,0.1,10.3C84.7,256.4,82.8,256.8,84.1,259z"/>
<path class="st4" d="M128.6,262.1c0.3-0.9,0.3-1.9,0.5-2.9c3.5-16.7,2.5-17.7-14.4-15.4c-2.7,0.4-2.9,0.9-2,3.3
	c2.6,6.7,2.4,13.5-0.9,20c-0.7,1.4-1.2,2.9-2.1,4.9c2.3,0,4.1,0,5.9,0C125,272.1,126.1,271.3,128.6,262.1z"/>
<path class="st2" d="M104,220.8c-2.8-6.9-5.6-13.6-8.5-20.8c-3,6-1,13.8-8.8,17.7C92.8,219.9,97.9,221.7,104,220.8z"/>
<path class="st4" d="M93.4,283.3c-1.4,0.3-4.7-0.1-4.1,2.2c0.8,3,0.4,7.4,4.5,8.5c4.8,1.4,10.1-2.9,10.3-7.8c0.1-2.4,0-4.9,0-8
	C99.3,282,99.3,281.9,93.4,283.3z"/>
<path class="st5" d="M306.2,381.6c-3.4,3-6.4,6.5-10.9,8.3c-0.1-0.6-0.4-0.9-0.3-1.2c0.3-1.3,0.7-2.6,1.1-3.8
	c3.8-12.4,6.8-25,6.8-38.1c0-25.8-2.6-51.5-5.7-77.1c-1.6-13.4-3.3-26.7-3.1-40.2c0-2.2-0.1-4.7-3.2-4.5c-2.6,0.2-2.8,2.4-2.7,4.5
	c0,1,0,2,0,3c-0.1,24,4.9,47.6,6.5,71.5c0.7,9.6,1.9,19.1,1.6,29.3c-30.1-18.4-61.5-26.6-96-15.8c0-0.5-0.1-1.1-0.1-1.5
	c-0.1-1.5-0.2-2.7-0.3-3.9v0c-0.8-1.5-1-3-0.9-4.5c0-0.6,0-1.1,0.1-1.7c0.1-1,0.1-1.9,0.1-2.9c-0.1-3.5-1.5-1.8-2.8-0.9
	c-0.1,13.5-0.6,27-0.1,40.5c0.5,11.5,1.7,23.1,5.4,34.2c2.3,7,5.4,13.5,8.1,20.3c0.5,1.3,2,2.7-0.8,3.7c-5.5,1.9-9.7,5.6-13.2,10.3
	c-7.2-10-15.2-6.6-25.4,3.1c-2.3-2.1-5-3.7-7.8-5.2c-7.8-4.3-17.6-0.2-18.9,8.7c-0.6,4.4-2.6,4.8-5.9,4.9c-1.5,0.1-3,0.2-4.5,0.5
	c-6.6,1.3-10.1,5.5-10.3,12.1c-0.2,5.8,2,9.9,7.6,12c2.9,1.1,5.5,2.2,2.9,6.4c-2.7,4.5-2.9,9.8-2.4,15c0.7,7.4,7.8,11,14.3,7.3
	c1.1-0.6,1.9-1.9,3.3-1.5c0.2,8.8,4.6,15,11.9,18.9c6.3,3.3,12.5,2.3,17.9-2.4c1.4-1.2,2.5-0.1,3.7,0c5.7,0.8,9.8-1.8,12.5-6.9
	c2.3-4.6,5.7-8,11.5-8.1c10.2-0.1,15.5-5.4,14.7-15.1c-0.3-3.7-0.7-7,2.8-9.5c1.2-0.8,1.2-2.6,1.3-4.1c0.2-7-4.1-13.9-11-16.9
	c-1.3-0.6-3.6-0.7-3.8-2.1c-1-7.4-6-9.9-13-10.3c2.4-3.8,4.5-6.8,7.2-9.3c7.5-6.6,7.4-6.4,13.6,1.2c11.9,14.6,33.1,21.1,51.1,11.8
	c9.9-5.1,15.9-13.3,21.4-22.3c0.9-1.5,1.2-3.6,3.2-4.2c6.2-1.9,11.3-5.5,15.7-10.2c1.7-1.8,6.7-2.9,3.9-6.1
	C311,375.9,308.3,379.8,306.2,381.6z M184.2,487c-1-0.2-3.2,0.3-2.4-1.7c0.7-1.9-0.4-5.4,2.5-5.5c2.1-0.1,5.9,1.1,5.9,3.3
	C190.2,485.3,187.3,487.1,184.2,487z M204.5,472.8c-0.2,0-0.4,0-0.5-0.1c-1.4-3.6-0.6-7.4-0.8-11.1c-0.1-2.4,2.1-1.5,3.4-1.6
	c2.1-0.2,4.3-0.2,6.4-0.6c3.6-0.6,4.1-0.3,4.1,3.3C217.1,467.9,209.6,473.9,204.5,472.8z M209.2,433.1c5.9,1.2,11.8,6.9,11.9,12.3
	c0,1.3,0.5,3.1-0.9,3.7c-4.2,2-6.7,7.4-12.4,6.2c-0.8-0.2-1.7-0.1-2.5,0c-4.1,0.1-7.4,0.9-5.6,6.3c0.4,1.2,0.6,2.6,0.4,3.9
	c-0.3,4,0.1,8.5-4.6,10.7c-4.2,1.9-9.1,0.5-13.2-3.2c-1.2-1.1-1.4-4.3-3.7-3.2c-2.2,1-1.7,3.8-1.5,5.9c0.1,2,0.9,4,0.7,5.9
	c-1.1,9.4-10.8,10.8-16.1,7.5c-7.1-4.3-9.2-9.7-7.8-18.6c0.2-1.1-0.9-2.4-1.6-4c-2.5,4.4-6.2,6.4-10.7,6.8c-3.6,0.3-5.6-1.3-5.9-5.1
	c-1-12.1,6.4-25.2,20.1-26.1c1.4-0.1,3.6,0.2,3.5-1.8c-0.1-1.7-2.3-1.7-3.6-1.9c-6.9-1.2-12.3,1.9-16.7,6.8
	c-2.9,3.3-4.9,3.2-7.1-0.5c-1-1.7-2.3-3.3-3-5.1c-2.2-5.5-0.8-8.8,4.4-11.3c3-1.4,6.2-1,9.3-1.8c3.9-1,4.6,3.1,6.6,5
	c4.2,4,6.6,5,11.3,4.2c0.2-1.6-1.2-2.1-2.1-2.3c-6.4-1.4-8.8-6.9-11.2-11.8c-1.4-2.9-0.7-6.4,2-8.7c2.8-2.4,6.2-3.1,9.7-1.2
	c9.5,5.1,15.7,12.5,16.3,23.7c0,0.7,0.2,1.3,1.6,1.6c2.2-4.6,0.7-9.2-0.6-13.6c-0.8-2.6-3-5.4-1-7.8c2.9-3.4,6.8-6,11.5-6.3
	c3.6-0.2,6.5,5.6,4,8.6c-4.8,5.8-8.2,12.3-11,19.2c-1,2.4-2.3,3-4.9,3c-9.1,0.2-16.6,10-13.7,18.2c2.1,6.1,7.4,8.5,13.5,9.5
	c9.6,1.5,19.5-7.5,18.5-16.6c-0.5-4.1-3.2-6.8-6-9.4c-2.2-2.2-2.6-3.4,0.8-4.9C194.9,433.7,201.6,431.6,209.2,433.1z M188.6,453
	c0,4.9-6.8,10.1-13.1,10c-5.1-0.1-10.4-4.6-10.5-8.8c-0.1-4.6,7.2-11.2,12.4-11.2C182.7,443,188.6,448.3,188.6,453z M203,422.4
	c2.2,0.9,3.4,3.2,3.2,5c-0.2,1.6-2.8,1.1-4.4,1.2c-3.4,0.1-6.5,1-9.6,2.4c-0.8,0.4-1.6,1.5-2.6,0.6c-0.9-0.8-0.5-2,0-2.8
	c1.5-2.6,3.1-5,4.8-7.5c0.6-0.8,1.4-1.5,2.6-1.2C198.9,420.9,201,421.6,203,422.4z M291.9,381.3c-3.1,10.2-7.2,19.7-14.4,27.9
	c-9.8,11.2-29.4,14.9-43,7.5c-17.4-9.5-23.8-26.4-29.3-43.9c-1-3.2,2.1-3,3.7-3.4c8.6-2.1,17.3-3.3,24.8-3.5
	c19.9,0.7,38.5,1.6,55.7,10.2C292.2,377.4,292.7,378.6,291.9,381.3z M290.8,371.2c-19.9-9.9-41.2-10.6-62.8-10
	c-7.1,0.2-14.1,1.8-20.9,4.1c-2.7,0.9-3.7,1-4.2-2.2c-2.1-12.3-3-24.7-2.9-37.1c0-1.4,0.3-2,2-2.5c18.8-6,37.4-5.2,56.4-1
	c12.8,2.8,24.1,9.1,36.2,13.3c2,0.7,2.2,2.2,2.2,3.9c0,3.2,0,6.3,0,10.2c0.4,6-0.2,12.6-1.8,19.1
	C294.5,371.4,293.7,372.6,290.8,371.2z"/>
<path class="st5" d="M169.7,309.1c-0.9,0.4-2,1.8-2.7-0.3c-2.2-7-8.1-11.7-11.5-17.9c-1.4-2.5-1.3-4.4-0.5-6.9
	c2.2-7.1,4.3-14.2,5.9-21.5c0.9-3.9,2.7-4.8,6.3-4.2c9.1,1.7,18.1,4.4,27.3,5.6c3.5,0.4,0.9,3.5,1.8,5.1c1.6-2.4,0.5-5.1,0.8-7.6
	c-11.3-4.7-23.3-7.1-35.3-9.2c-3.1-0.5-4.6,1.2-5.3,3.9c-2.5,10.2-5.1,20.5-8.6,30.4c-0.8,2.4-0.1,4,1.3,5.9
	c3.8,5.2,7.6,10.4,11.1,15.9c2.4,3.7,5.4,4.6,9.4,3.3c4.5-1.5,9-3.2,13.5-4.8c-0.3-1-0.7-2-1-3C178,305.6,173.9,307.4,169.7,309.1z"
	/>
<path class="st6" d="M199.2,302.9c0,0.9-0.1,1.9-0.1,2.9c0,0.6-0.1,1.1-0.1,1.7c0,1.5,0.1,3,0.9,4.5v0c1.2-10.3-1-20.6,0.3-30.9
	c0.1-1-0.1-2-0.9-2.7c2.3-4.6-0.6-9.5,0.9-14.1c0.2-0.8,0.6-1.5,0.9-2.2c0-0.3,0-0.7,0-1c-1,0-2,0-3,0c-0.3,0.1-0.6,0.3-0.9,0.4
	c-0.3,2.5,0.8,5.2-0.8,7.6c-1.5,6.4-0.8,12.9-0.9,19.3c-0.1,8.9-0.3,9.3-8.7,12.8c-1.6,0.7-3.5,1.1-4.7,2.6c0.3,1,0.7,2,1,3
	c3.8-0.9,7.8-1.3,10.2-5.1c1-1.6,2.2-1,3.1,0.2C197.7,301.1,199.1,299.4,199.2,302.9z"/>
<path class="st5" d="M75.9,345.8c-3.3,0.2-5.9,4.3-5.4,9.1c0.3,3.2,1.8,5.8,5.5,5.9c3.5,0.1,6.3-3.9,6.2-8.3
	C82,348.2,79.6,345.7,75.9,345.8z"/>
<path class="st5" d="M202.9,212.5c-4.1,16-3.4,32.4-4.9,48.5c1,0,2,0,3,0C201.7,244.8,202.3,228.6,202.9,212.5z"/>
<path class="st5" d="M103,325c-3.8-0.2-6.7,2.7-6.8,6.9c-0.1,3.8,1.4,6.6,5.4,7c3.2,0.3,5.6-3.3,5.8-8.4
	C107.3,327.9,107,325.1,103,325z"/>
<path class="st5" d="M129.1,303.6c0.4,0,0.8,0,1.1-0.1c0.3-0.1,0.5-0.2,0.8-0.3c0.2-0.1,0.4-0.2,0.5-0.3c2-1.3,3.5-4.2,3.5-7.1
	c0.2-3.3-1.2-5.5-4.1-6c-0.4-0.1-0.8-0.1-1.3-0.1c-4.2,0-5.5,3.4-5.6,6.7C124,299.6,124.9,303.1,129.1,303.6z M127.7,295.4
	c0.6-0.7,2.2-1,2.7-0.2c1.2,1.8-0.3,3.2-1.5,5C127.7,298.5,126,297.3,127.7,295.4z"/>
<path class="st5" d="M199.2,278.3c2.1-0.9,1.5-2.8,1.6-4.3c0.2-4,0.1-8,0.2-12c-0.3,0.7-0.6,1.5-0.9,2.2
	C198.7,268.9,201.5,273.8,199.2,278.3z"/>
<path class="st5" d="M117,153.2c5.5-11,8.4-23,10.8-35c0.6-3-0.9-5.2-4.7-4.1c-1,1.9-2,3.8-3,5.7c1.2,3.4-0.2,6.3-1.3,9.2
	c-0.4,1-0.7,2-0.9,3c-1.3,6.4-3.5,12.6-7,19.4c-5.5-10.6-10.4-20.4-14.3-30.6c-1-2.6,0.8-2.4,2.2-2.5c3.8-0.2,7.6-0.4,11.4,0.6
	c-0.8-2.8,2.5-3.4,3-5.5c-6.1-0.2-12.3,0.2-18.4,0.4c-9.2,0.3-18.5,1.5-27.8-0.5c-6.8-1.5-11.4,3.7-8.6,9.8
	c3.5,7.7,4.4,16.5,9.9,23.1c2.4,2.9,2.9,8.4,7.9,7.9c5-0.5,6-5.7,7.9-9.3c2.7-5.2,5-10.7,8.4-15.8c4.1,8.4,7.7,16.6,12,24.4
	C108.3,160.2,113.6,160.1,117,153.2z M88.1,122.8c-4.2,7.7-8,15.5-12.1,23.4c-7-7.6-9.2-16.7-13.6-24.6c-1.3-2.2-1.3-4.1,2.6-3.3
	c6.7,1.3,13.6,0.6,20.4,0.5C88.6,118.9,90.1,119.1,88.1,122.8z"/>
<path class="st6" d="M117.5,94.6c8.1,0.9,16.3-9.2,16.5-19.2c0.1-8.6-10.1-19.3-18.4-19.4C106.3,56,96.9,65.7,97,75.2
	C96.8,89.3,106,93.4,117.5,94.6z"/>
<path class="st7" d="M78.1,71.1c0-9.4-6.7-16.3-15.5-16.2c-8.8,0.1-16.5,7.8-16.5,16.6C46,80.6,53.5,87.9,63,88
	C72.6,88,78.1,81.9,78.1,71.1z"/>
<path class="st1" d="M110.2,118.8c3.2,1.4,6.6,1.2,9.9,1c1-1.9,2-3.8,3-5.7c-3.2-1.5-6.5-2.1-9.9-0.8
	C112.6,115.4,109.3,116,110.2,118.8z"/>
<path class="st5" d="M35,109.7c1.5-5.1,2.9-10.1,4.4-15.2C36.7,99.3,33.3,103.8,35,109.7z"/>
<path class="st5" d="M151.7,110.9c1-0.1,1.4-0.8,1.4-1.7c0-2.9,0-5.7,0-9.4c-3.1,2.9-3.1,6-3.1,9.2C150,110,150.3,111,151.7,110.9z"
	/>
<path class="st5" d="M144.6,108c3-1.3,1.6-5,3.3-6.9c0.2-1.2-0.3-2.4-1-2.2c-3.2,1.1-2.4,4.6-3.5,6.9
	C142.9,106.9,143.8,108.4,144.6,108z"/>
<path class="st5" d="M138.2,107.7c0.5,0,1.4-0.6,1.5-1c0.2-2.8,2.3-5.4,0.5-8.5c-1.1,2.6-3,4.7-3,7.6
	C137.1,106.6,137,107.7,138.2,107.7z"/>
<path class="st5" d="M41,109.9c1.9-2.9,3.6-5.9,2.4-9.5C42.3,103.5,39.9,106.3,41,109.9z"/>
<path class="st5" d="M85.4,255.4c2.3-3.5,2-6.9-0.1-10.3c-1.9-3.1-5.1-4.1-8.6-4c-1.2,0-2.5,0.3-2.4,1.8c0.1,1.5,1.5,1,2.4,1
	c3.9,0.3,6.9,1.9,6.9,6.2c0,4.5-3.2,5.2-7,4.9c-1.3-0.1-2.3,0.4-2.5,1.8c-0.2,1.4,0.7,2.2,1.8,2.6c0.9,0.4,2,0.5,2.8,0.9
	c1.3,0.8,3.8,0.9,3.2,3.1c-0.5,1.8-2.6,2.5-4.5,2.5c-1,0-1.9-0.5-2.9-0.6c-1.1-0.2-2,0.3-2.4,1.3c-0.6,1.3,0,2.4,1.1,2.9
	c1.3,0.6,2.8,0.9,3.6,1.2c7.6-0.1,11-5.9,7.3-11.8C82.8,256.8,84.7,256.4,85.4,255.4z"/>
<path class="st2" d="M296.9,349.8c0-3.8,0-7,0-10.2c0-1.7-0.2-3.2-2.2-3.9c-12.1-4.2-23.4-10.5-36.2-13.3c-19-4.2-37.7-5.1-56.4,1
	c-1.8,0.6-2,1.1-2,2.5c-0.2,12.5,0.8,24.8,2.9,37.1c0.5,3.2,1.5,3.2,4.2,2.2c6.7-2.3,13.8-3.9,20.9-4.1c21.5-0.6,42.9,0.1,62.8,10
	c3,1.5,3.7,0.2,4.4-2.3C296.7,362.3,297.3,355.7,296.9,349.8z M283,350.4c-0.2,2.4-1.2,4.8-4.2,4.5c-3.2-0.3-3.5-3.3-3.7-5.6
	c-0.2-2.3,1.5-3.5,3.8-3.6C281.6,346.2,283.3,347.7,283,350.4z"/>
<path class="st3" d="M289.5,376.1c-17.2-8.6-35.8-9.5-55.7-10.2c-7.6,0.2-16.3,1.4-24.8,3.5c-1.6,0.4-4.7,0.3-3.7,3.4
	c5.5,17.4,11.8,34.4,29.3,43.9c13.6,7.4,33.2,3.6,43-7.5c7.2-8.2,11.3-17.7,14.4-27.9C292.7,378.6,292.2,377.4,289.5,376.1z"/>
<path class="st8" d="M188.1,436.7c-3.4,1.5-3.1,2.7-0.8,4.9c2.7,2.6,5.5,5.3,6,9.4c1.1,9.1-8.9,18.1-18.5,16.6
	c-6.1-0.9-11.3-3.4-13.5-9.5c-2.9-8.2,4.6-18,13.7-18.2c2.5,0,3.9-0.6,4.9-3c2.8-6.8,6.2-13.4,11-19.2c2.5-3.1-0.3-8.9-4-8.6
	c-4.7,0.3-8.6,2.9-11.5,6.3c-2,2.4,0.2,5.2,1,7.8c1.3,4.4,2.8,9,0.6,13.6c-1.4-0.3-1.6-1-1.6-1.6c-0.6-11.2-6.8-18.6-16.3-23.7
	c-3.5-1.9-6.9-1.2-9.7,1.2c-2.7,2.3-3.4,5.8-2,8.7c2.5,5,4.8,10.4,11.2,11.8c1,0.2,2.3,0.7,2.1,2.3c-4.7,0.8-7.2-0.3-11.3-4.2
	c-2-1.9-2.7-6-6.6-5c-3.1,0.8-6.3,0.3-9.3,1.8c-5.2,2.5-6.7,5.9-4.4,11.3c0.7,1.8,2.1,3.3,3,5.1c2.1,3.7,4.2,3.8,7.1,0.5
	c4.4-4.9,9.8-8,16.7-6.8c1.3,0.2,3.5,0.2,3.6,1.9c0.1,2-2.1,1.7-3.5,1.8c-13.7,0.9-21.1,14-20.1,26.1c0.3,3.8,2.3,5.4,5.9,5.1
	c4.5-0.4,8.1-2.4,10.7-6.8c0.7,1.6,1.8,2.9,1.6,4c-1.4,8.9,0.7,14.3,7.8,18.6c5.3,3.3,15,1.9,16.1-7.5c0.2-1.9-0.5-3.9-0.7-5.9
	c-0.1-2.1-0.6-4.9,1.5-5.9c2.3-1.1,2.5,2.1,3.7,3.2c4,3.7,8.9,5.1,13.2,3.2c4.7-2.1,4.3-6.6,4.6-10.7c0.1-1.3,0-2.7-0.4-3.9
	c-1.8-5.4,1.5-6.2,5.6-6.3c0.8,0,1.7-0.1,2.5,0c5.8,1.2,8.2-4.2,12.4-6.2c1.3-0.6,0.9-2.4,0.9-3.7c-0.1-5.4-6-11.1-11.9-12.3
	C201.6,431.6,194.9,433.7,188.1,436.7z"/>
<path class="st9" d="M165,454.1c0.1,4.2,5.4,8.7,10.5,8.8c6.3,0.1,13.1-5.1,13.1-10c0-4.7-5.9-10-11.2-10
	C172.3,443,165,449.5,165,454.1z"/>
<path class="st8" d="M213,459.4c-2.1,0.3-4.3,0.3-6.4,0.6c-1.3,0.1-3.5-0.8-3.4,1.6c0.2,3.7-0.6,7.5,0.8,11.1c0,0.1,0.3,0.1,0.5,0.1
	c5.1,1.1,12.6-4.9,12.6-10.1C217.1,459.1,216.6,458.8,213,459.4z"/>
<path class="st8" d="M194.3,421.4c-1.7,2.4-3.3,4.9-4.8,7.5c-0.5,0.8-0.9,2,0,2.8c1,0.9,1.8-0.2,2.6-0.6c3.1-1.4,6.2-2.2,9.6-2.4
	c1.6-0.1,4.2,0.4,4.4-1.2c0.2-1.8-1.1-4.1-3.2-5c-2-0.9-4.1-1.5-6.1-2.2C195.7,419.9,194.8,420.6,194.3,421.4z"/>
<path class="st8" d="M184.3,479.8c-3,0.1-1.8,3.6-2.5,5.5c-0.8,2,1.4,1.5,2.4,1.7c3.1,0.1,6-1.7,6-4
	C190.2,480.9,186.4,479.7,184.3,479.8z"/>
<path class="st2" d="M194.5,263.9c-9.2-1.2-18.2-3.9-27.3-5.6c-3.5-0.7-5.4,0.3-6.3,4.2c-1.6,7.2-3.7,14.4-5.9,21.5
	c-0.8,2.6-0.8,4.5,0.5,6.9c3.5,6.2,9.3,10.9,11.5,17.9c0.7,2.1,1.8,0.6,2.7,0.3c4.1-1.7,8.2-3.5,12.3-5.3c1.2-1.6,3-1.9,4.7-2.6
	c8.4-3.5,8.6-3.9,8.7-12.8c0.1-6.5-0.7-13,0.9-19.3C195.4,267.4,198,264.3,194.5,263.9z M180.8,275.5c-3.1,0.4-6.7-3.7-6.4-7
	c0.3-3.4,2.8-4.9,5.7-5.1c2.8-0.2,6.1,3.9,6.1,6.3C186.2,273.8,183.8,275.1,180.8,275.5z"/>
<path class="st3" d="M130.4,295.2c-0.5-0.8-2.1-0.5-2.7,0.2c-1.7,1.9,0,3.1,1.2,4.8C130.1,298.4,131.6,297.1,130.4,295.2z"/>
<path class="st10" d="M110.2,118.8c-3.7-0.9-7.6-0.8-11.4-0.6c-1.4,0.1-3.2-0.1-2.2,2.5c3.9,10.3,8.8,20,14.3,30.6
	c3.5-6.8,5.8-13,7-19.4c0.2-1,0.5-2,0.9-3c1.1-2.9,2.5-5.9,1.3-9.2C116.7,120,113.4,120.2,110.2,118.8z"/>
<path class="st10" d="M85.4,118.9c-6.8,0.1-13.7,0.8-20.4-0.5c-3.9-0.8-3.8,1.1-2.6,3.3c4.5,7.9,6.6,17,13.6,24.6
	c4.1-7.9,7.9-15.8,12.1-23.4C90.1,119.1,88.6,118.9,85.4,118.9z"/>
<path class="st5" d="M279,345.7c-2.3,0.2-4,1.3-3.8,3.6c0.2,2.3,0.4,5.3,3.7,5.6c3,0.3,3.9-2.1,4.2-4.5
	C283.3,347.7,281.6,346.2,279,345.7z"/>
<path class="st5" d="M180.1,263.5c-3,0.2-5.4,1.7-5.7,5.1c-0.3,3.3,3.3,7.4,6.4,7c2.9-0.4,5.4-1.7,5.4-5.8
	C186.3,267.3,182.9,263.3,180.1,263.5z"/>
</svg>
