<?xml version="1.0" encoding="utf-8"?>
<!-- Generator: Adobe Illustrator 21.0.2, SVG Export Plug-In . SVG Version: 6.00 Build 0)  -->
<svg version="1.1" id="레이어_1" xmlns="http://www.w3.org/2000/svg" xmlns:xlink="http://www.w3.org/1999/xlink" x="0px"
	 y="0px" viewBox="0 0 340 126" style="enable-background:new 0 0 340 126;" xml:space="preserve">
<style type="text/css">
	.st0{fill:url(#SVGID_1_);}
	.st1{fill:url(#SVGID_2_);}
	.st2{fill:url(#SVGID_3_);}
	.st3{fill:url(#SVGID_4_);}
	.st4{fill:url(#SVGID_5_);}
	.st5{fill:url(#SVGID_6_);}
	.st6{fill:url(#SVGID_7_);}
	.st7{fill:url(#SVGID_8_);}
	.st8{fill:url(#SVGID_9_);}
	.st9{fill:url(#SVGID_10_);}
	.st10{fill:url(#SVGID_11_);}
	.st11{fill:url(#SVGID_12_);}
	.st12{fill:url(#SVGID_13_);}
	.st13{fill:url(#SVGID_14_);}
	.st14{fill:url(#SVGID_15_);}
	.st15{fill:url(#SVGID_16_);}
	.st16{fill:url(#SVGID_17_);}
</style>
<g>
	<linearGradient id="SVGID_1_" gradientUnits="userSpaceOnUse" x1="4.581" y1="33.1595" x2="42.0742" y2="33.1595">
		<stop  offset="0" style="stop-color:#D2E5A4"/>
		<stop  offset="0.3416" style="stop-color:#D4E6A7;stop-opacity:0.6584"/>
		<stop  offset="0.5791" style="stop-color:#DAE9AF;stop-opacity:0.4209"/>
		<stop  offset="0.785" style="stop-color:#E5EEBC;stop-opacity:0.215"/>
		<stop  offset="0.9718" style="stop-color:#F3F6CF;stop-opacity:2.819324e-02"/>
		<stop  offset="1" style="stop-color:#F5F7D2;stop-opacity:0"/>
	</linearGradient>
	<polygon class="st0" points="4.6,35.5 42.1,50.6 42.1,44.4 13.1,33.3 13.1,33.2 42.1,22 42.1,15.7 4.6,30.9 	"/>
	<linearGradient id="SVGID_2_" gradientUnits="userSpaceOnUse" x1="51.4609" y1="27.5229" x2="84.3281" y2="27.5229">
		<stop  offset="0" style="stop-color:#D2E5A4"/>
		<stop  offset="0.3416" style="stop-color:#D4E6A7;stop-opacity:0.6584"/>
		<stop  offset="0.5791" style="stop-color:#DAE9AF;stop-opacity:0.4209"/>
		<stop  offset="0.785" style="stop-color:#E5EEBC;stop-opacity:0.215"/>
		<stop  offset="0.9718" style="stop-color:#F3F6CF;stop-opacity:2.819324e-02"/>
		<stop  offset="1" style="stop-color:#F5F7D2;stop-opacity:0"/>
	</linearGradient>
	<path class="st1" d="M84.3,50.6V31.5c0-9.4-5.4-13.6-12.2-13.6c-3.3,0-7.5,1.2-10.3,4.5h-0.1V4.4H51.5v46.2h10.2V31.2
		c0-4.8,3.9-6.3,6.5-6.3c4.4,0,5.9,3.2,5.9,7.2v18.5H84.3z"/>
	<linearGradient id="SVGID_3_" gradientUnits="userSpaceOnUse" x1="90.9531" y1="34.6263" x2="122.7148" y2="34.6263">
		<stop  offset="0" style="stop-color:#D2E5A4"/>
		<stop  offset="0.3416" style="stop-color:#D4E6A7;stop-opacity:0.6584"/>
		<stop  offset="0.5791" style="stop-color:#DAE9AF;stop-opacity:0.4209"/>
		<stop  offset="0.785" style="stop-color:#E5EEBC;stop-opacity:0.215"/>
		<stop  offset="0.9718" style="stop-color:#F3F6CF;stop-opacity:2.819324e-02"/>
		<stop  offset="1" style="stop-color:#F5F7D2;stop-opacity:0"/>
	</linearGradient>
	<path class="st2" d="M122.2,43.1V31.3c0-7-3.2-13.3-15.2-13.3c-6,0-10.8,1.4-13.3,2.7l1.9,5.5c2.5-1.3,5.9-2.2,9.5-2.2
		c5.6,0,6.9,2.4,6.9,5.6c-12.2,0-21,3.9-21,12.1c0,5.2,4.4,9.6,11.5,9.6c4.3,0,8-1.4,10.2-4h0.2l0.6,3.3h9.2
		C122.3,48.7,122.2,45.9,122.2,43.1z"/>
	<linearGradient id="SVGID_4_" gradientUnits="userSpaceOnUse" x1="130.996" y1="34.3098" x2="164.1386" y2="34.3098">
		<stop  offset="0" style="stop-color:#D2E5A4"/>
		<stop  offset="0.3416" style="stop-color:#D4E6A7;stop-opacity:0.6584"/>
		<stop  offset="0.5791" style="stop-color:#DAE9AF;stop-opacity:0.4209"/>
		<stop  offset="0.785" style="stop-color:#E5EEBC;stop-opacity:0.215"/>
		<stop  offset="0.9718" style="stop-color:#F3F6CF;stop-opacity:2.819324e-02"/>
		<stop  offset="1" style="stop-color:#F5F7D2;stop-opacity:0"/>
	</linearGradient>
	<path class="st3" d="M164.1,50.6V31c0-9-5.5-13.1-12.5-13.1c-5.6,0-9.4,2.6-11.1,5h-0.2l-0.5-4.3H131c0.1,2.8,0.3,5.9,0.3,9.6v22.4
		h10.2v-19c0-4.9,3.8-6.7,6.6-6.7c4.4,0,5.9,3.1,5.9,7v18.7H164.1z"/>
	<linearGradient id="SVGID_5_" gradientUnits="userSpaceOnUse" x1="171.1777" y1="34.5684" x2="204.1835" y2="34.5684">
		<stop  offset="0" style="stop-color:#D2E5A4"/>
		<stop  offset="0.3416" style="stop-color:#D4E6A7;stop-opacity:0.6584"/>
		<stop  offset="0.5791" style="stop-color:#DAE9AF;stop-opacity:0.4209"/>
		<stop  offset="0.785" style="stop-color:#E5EEBC;stop-opacity:0.215"/>
		<stop  offset="0.9718" style="stop-color:#F3F6CF;stop-opacity:2.819324e-02"/>
		<stop  offset="1" style="stop-color:#F5F7D2;stop-opacity:0"/>
	</linearGradient>
	<path class="st4" d="M200.8,43.5c-2.6,0.7-5.6,1.3-9.4,1.3c-5.5,0-10.2-2.2-10.5-7.6h23c0.2-0.9,0.3-2.1,0.3-3.4
		c0-10.4-6.1-15.9-15.4-15.9c-11.3,0-17.6,7.9-17.6,17.1c0,9.9,6.8,16.2,18.6,16.2c4.8,0,9.3-0.7,12.4-1.8L200.8,43.5z"/>
	<linearGradient id="SVGID_6_" gradientUnits="userSpaceOnUse" x1="211.1543" y1="34.9424" x2="244.0898" y2="34.9424">
		<stop  offset="0" style="stop-color:#D2E5A4"/>
		<stop  offset="0.3416" style="stop-color:#D4E6A7;stop-opacity:0.6584"/>
		<stop  offset="0.5791" style="stop-color:#DAE9AF;stop-opacity:0.4209"/>
		<stop  offset="0.785" style="stop-color:#E5EEBC;stop-opacity:0.215"/>
		<stop  offset="0.9718" style="stop-color:#F3F6CF;stop-opacity:2.819324e-02"/>
		<stop  offset="1" style="stop-color:#F5F7D2;stop-opacity:0"/>
	</linearGradient>
	<path class="st5" d="M243.7,40.9V18.6h-10.2v19.7c0,3.6-3,6-6.3,6c-4.2,0-5.9-3-5.9-7.9V18.6h-10.2v19.1c0,9.6,5,13.6,12.3,13.6
		c5.9,0,9.5-2.8,11-4.9h0.2l0.5,4.3h8.9C244,47.9,243.7,44.7,243.7,40.9z"/>
	<linearGradient id="SVGID_7_" gradientUnits="userSpaceOnUse" x1="252.9921" y1="27.5229" x2="263.2128" y2="27.5229">
		<stop  offset="0" style="stop-color:#D2E5A4"/>
		<stop  offset="0.3416" style="stop-color:#D4E6A7;stop-opacity:0.6584"/>
		<stop  offset="0.5791" style="stop-color:#DAE9AF;stop-opacity:0.4209"/>
		<stop  offset="0.785" style="stop-color:#E5EEBC;stop-opacity:0.215"/>
		<stop  offset="0.9718" style="stop-color:#F3F6CF;stop-opacity:2.819324e-02"/>
		<stop  offset="1" style="stop-color:#F5F7D2;stop-opacity:0"/>
	</linearGradient>
	<rect x="253" y="4.4" class="st6" width="10.2" height="46.2"/>
	<linearGradient id="SVGID_8_" gradientUnits="userSpaceOnUse" x1="272.4628" y1="33.1595" x2="310.0253" y2="33.1595">
		<stop  offset="0" style="stop-color:#D2E5A4"/>
		<stop  offset="0.3416" style="stop-color:#D4E6A7;stop-opacity:0.6584"/>
		<stop  offset="0.5791" style="stop-color:#DAE9AF;stop-opacity:0.4209"/>
		<stop  offset="0.785" style="stop-color:#E5EEBC;stop-opacity:0.215"/>
		<stop  offset="0.9718" style="stop-color:#F3F6CF;stop-opacity:2.819324e-02"/>
		<stop  offset="1" style="stop-color:#F5F7D2;stop-opacity:0"/>
	</linearGradient>
	<polygon class="st7" points="310,30.5 272.5,15.7 272.5,21.9 302.5,33.1 302.5,33.2 272.5,44.4 272.5,50.6 310,35.9 	"/>
	<linearGradient id="SVGID_9_" gradientUnits="userSpaceOnUse" x1="4.581" y1="102.1709" x2="42.0742" y2="102.1709">
		<stop  offset="0" style="stop-color:#D2E5A4"/>
		<stop  offset="0.3416" style="stop-color:#D4E6A7;stop-opacity:0.6584"/>
		<stop  offset="0.5791" style="stop-color:#DAE9AF;stop-opacity:0.4209"/>
		<stop  offset="0.785" style="stop-color:#E5EEBC;stop-opacity:0.215"/>
		<stop  offset="0.9718" style="stop-color:#F3F6CF;stop-opacity:2.819324e-02"/>
		<stop  offset="1" style="stop-color:#F5F7D2;stop-opacity:0"/>
	</linearGradient>
	<polygon class="st8" points="4.6,104.5 42.1,119.7 42.1,113.4 13.1,102.3 13.1,102.2 42.1,91 42.1,84.7 4.6,99.9 	"/>
	<linearGradient id="SVGID_10_" gradientUnits="userSpaceOnUse" x1="47.0419" y1="98.4898" x2="72.1054" y2="98.4898">
		<stop  offset="0" style="stop-color:#D2E5A4"/>
		<stop  offset="0.3416" style="stop-color:#D4E6A7;stop-opacity:0.6584"/>
		<stop  offset="0.5791" style="stop-color:#DAE9AF;stop-opacity:0.4209"/>
		<stop  offset="0.785" style="stop-color:#E5EEBC;stop-opacity:0.215"/>
		<stop  offset="0.9718" style="stop-color:#F3F6CF;stop-opacity:2.819324e-02"/>
		<stop  offset="1" style="stop-color:#F5F7D2;stop-opacity:0"/>
	</linearGradient>
	<polygon class="st9" points="47,122.2 53.9,122.2 72.1,74.7 65.2,74.7 	"/>
	<linearGradient id="SVGID_11_" gradientUnits="userSpaceOnUse" x1="76.3847" y1="96.5347" x2="109.2519" y2="96.5347">
		<stop  offset="0" style="stop-color:#D2E5A4"/>
		<stop  offset="0.3416" style="stop-color:#D4E6A7;stop-opacity:0.6584"/>
		<stop  offset="0.5791" style="stop-color:#DAE9AF;stop-opacity:0.4209"/>
		<stop  offset="0.785" style="stop-color:#E5EEBC;stop-opacity:0.215"/>
		<stop  offset="0.9718" style="stop-color:#F3F6CF;stop-opacity:2.819324e-02"/>
		<stop  offset="1" style="stop-color:#F5F7D2;stop-opacity:0"/>
	</linearGradient>
	<path class="st10" d="M97,86.9c-3.3,0-7.5,1.2-10.3,4.5h-0.1V73.4H76.4v46.2h10.2v-19.4c0-4.8,3.9-6.3,6.5-6.3
		c4.4,0,5.9,3.2,5.9,7.2v18.5h10.2v-19.2C109.3,91.1,103.9,86.9,97,86.9z"/>
	<linearGradient id="SVGID_12_" gradientUnits="userSpaceOnUse" x1="115.875" y1="103.6367" x2="147.6386" y2="103.6367">
		<stop  offset="0" style="stop-color:#D2E5A4"/>
		<stop  offset="0.3416" style="stop-color:#D4E6A7;stop-opacity:0.6584"/>
		<stop  offset="0.5791" style="stop-color:#DAE9AF;stop-opacity:0.4209"/>
		<stop  offset="0.785" style="stop-color:#E5EEBC;stop-opacity:0.215"/>
		<stop  offset="0.9718" style="stop-color:#F3F6CF;stop-opacity:2.819324e-02"/>
		<stop  offset="1" style="stop-color:#F5F7D2;stop-opacity:0"/>
	</linearGradient>
	<path class="st11" d="M147.1,100.3c0-7-3.2-13.3-15.2-13.3c-6,0-10.8,1.4-13.3,2.7l1.9,5.5c2.5-1.3,5.9-2.2,9.5-2.2
		c5.6,0,6.9,2.4,6.9,5.6c-12.2,0-21,3.9-21,12.1c0,5.2,4.4,9.6,11.5,9.6c4.3,0,8-1.4,10.2-4h0.2l0.6,3.3h9.2c-0.4-2-0.6-4.8-0.6-7.6
		V100.3z"/>
	<linearGradient id="SVGID_13_" gradientUnits="userSpaceOnUse" x1="155.9208" y1="103.3204" x2="189.0644" y2="103.3204">
		<stop  offset="0" style="stop-color:#D2E5A4"/>
		<stop  offset="0.3416" style="stop-color:#D4E6A7;stop-opacity:0.6584"/>
		<stop  offset="0.5791" style="stop-color:#DAE9AF;stop-opacity:0.4209"/>
		<stop  offset="0.785" style="stop-color:#E5EEBC;stop-opacity:0.215"/>
		<stop  offset="0.9718" style="stop-color:#F3F6CF;stop-opacity:2.819324e-02"/>
		<stop  offset="1" style="stop-color:#F5F7D2;stop-opacity:0"/>
	</linearGradient>
	<path class="st12" d="M176.6,87c-5.6,0-9.4,2.6-11.1,5h-0.2l-0.5-4.3h-8.8c0.1,2.8,0.3,5.9,0.3,9.6v22.4h10.2v-19
		c0-4.9,3.8-6.7,6.6-6.7c4.4,0,5.9,3.1,5.9,7v18.7h10.2V100C189.1,91.1,183.6,87,176.6,87z"/>
	<linearGradient id="SVGID_14_" gradientUnits="userSpaceOnUse" x1="196.1035" y1="103.5801" x2="229.1074" y2="103.5801">
		<stop  offset="0" style="stop-color:#D2E5A4"/>
		<stop  offset="0.3416" style="stop-color:#D4E6A7;stop-opacity:0.6584"/>
		<stop  offset="0.5791" style="stop-color:#DAE9AF;stop-opacity:0.4209"/>
		<stop  offset="0.785" style="stop-color:#E5EEBC;stop-opacity:0.215"/>
		<stop  offset="0.9718" style="stop-color:#F3F6CF;stop-opacity:2.819324e-02"/>
		<stop  offset="1" style="stop-color:#F5F7D2;stop-opacity:0"/>
	</linearGradient>
	<path class="st13" d="M213.7,86.9c-11.3,0-17.6,7.9-17.6,17.1c0,9.9,6.8,16.2,18.6,16.2c4.8,0,9.3-0.7,12.4-1.8l-1.4-5.9
		c-2.6,0.7-5.6,1.3-9.4,1.3c-5.5,0-10.2-2.2-10.5-7.6h23c0.2-0.9,0.3-2.1,0.3-3.4C229.1,92.5,223,86.9,213.7,86.9z"/>
	<linearGradient id="SVGID_15_" gradientUnits="userSpaceOnUse" x1="236.0781" y1="103.9541" x2="269.0136" y2="103.9541">
		<stop  offset="0" style="stop-color:#D2E5A4"/>
		<stop  offset="0.3416" style="stop-color:#D4E6A7;stop-opacity:0.6584"/>
		<stop  offset="0.5791" style="stop-color:#DAE9AF;stop-opacity:0.4209"/>
		<stop  offset="0.785" style="stop-color:#E5EEBC;stop-opacity:0.215"/>
		<stop  offset="0.9718" style="stop-color:#F3F6CF;stop-opacity:2.819324e-02"/>
		<stop  offset="1" style="stop-color:#F5F7D2;stop-opacity:0"/>
	</linearGradient>
	<path class="st14" d="M268.7,87.6h-10.2v19.7c0,3.6-3,6-6.3,6c-4.2,0-5.9-3-5.9-7.9V87.6h-10.2v19.1c0,9.6,5,13.6,12.3,13.6
		c5.9,0,9.5-2.8,11-4.9h0.2l0.5,4.3h8.9c-0.1-2.7-0.3-6-0.3-9.8V87.6z"/>
	<linearGradient id="SVGID_16_" gradientUnits="userSpaceOnUse" x1="277.916" y1="96.5347" x2="288.1367" y2="96.5347">
		<stop  offset="0" style="stop-color:#D2E5A4"/>
		<stop  offset="0.3416" style="stop-color:#D4E6A7;stop-opacity:0.6584"/>
		<stop  offset="0.5791" style="stop-color:#DAE9AF;stop-opacity:0.4209"/>
		<stop  offset="0.785" style="stop-color:#E5EEBC;stop-opacity:0.215"/>
		<stop  offset="0.9718" style="stop-color:#F3F6CF;stop-opacity:2.819324e-02"/>
		<stop  offset="1" style="stop-color:#F5F7D2;stop-opacity:0"/>
	</linearGradient>
	<rect x="277.9" y="73.4" class="st15" width="10.2" height="46.2"/>
	<linearGradient id="SVGID_17_" gradientUnits="userSpaceOnUse" x1="297.3867" y1="102.1709" x2="334.9492" y2="102.1709">
		<stop  offset="0" style="stop-color:#D2E5A4"/>
		<stop  offset="0.3416" style="stop-color:#D4E6A7;stop-opacity:0.6584"/>
		<stop  offset="0.5791" style="stop-color:#DAE9AF;stop-opacity:0.4209"/>
		<stop  offset="0.785" style="stop-color:#E5EEBC;stop-opacity:0.215"/>
		<stop  offset="0.9718" style="stop-color:#F3F6CF;stop-opacity:2.819324e-02"/>
		<stop  offset="1" style="stop-color:#F5F7D2;stop-opacity:0"/>
	</linearGradient>
	<polygon class="st16" points="297.4,84.7 297.4,90.9 327.4,102.1 327.4,102.2 297.4,113.4 297.4,119.7 334.9,104.9 334.9,99.5 	"/>
</g>
</svg>
