<?xml version="1.0" encoding="utf-8"?>
<!-- Generator: Adobe Illustrator 21.0.2, SVG Export Plug-In . SVG Version: 6.00 Build 0)  -->
<svg version="1.1" id="Layer_1" xmlns="http://www.w3.org/2000/svg" xmlns:xlink="http://www.w3.org/1999/xlink" x="0px" y="0px"
	 viewBox="0 0 385.3 202.8" style="enable-background:new 0 0 385.3 202.8;" xml:space="preserve">
<style type="text/css">
	.st0{fill:url(#SVGID_1_);}
	.st1{fill:#FFFFFF;}
	.st2{fill:#CECBE6;}
	.st3{fill:none;}
	.st4{fill:#0B0B0B;}
	.st5{fill:#F8F3A6;}
	.st6{fill:#D1E6B6;}
	.st7{fill:#F0EFEF;}
	.st8{fill:#35262B;}
	.st9{fill:#242221;}
	.st10{fill:#2B2927;}
	.st11{fill:#EE3324;}
	.st12{fill:#EFE92C;}
</style>
<g>
	<g>
		
			<linearGradient id="SVGID_1_" gradientUnits="userSpaceOnUse" x1="81.7002" y1="86.6964" x2="205.487" y2="130.4011" gradientTransform="matrix(1 0 0 -1 0 203.28)">
			<stop  offset="0" style="stop-color:#F69799"/>
			<stop  offset="1" style="stop-color:#FFE2AA"/>
		</linearGradient>
		<path class="st0" d="M205.7,66.8c0-29.7-24.2-53.9-53.9-53.9S97.9,37.2,97.9,66.8c0,4.4,0.5,8.7,1.5,12.8
			c-15.1,9.6-25.1,26.4-25.1,45.5c0,29.7,24.2,53.9,53.9,53.9s53.9-24.2,53.9-53.9c0-4.4-0.5-8.7-1.5-12.8
			c-3.6,2.3-7.4,4.1-11.5,5.5c0.4,2.4,0.7,4.8,0.7,7.3c0,22.9-18.6,41.5-41.5,41.5S86.8,148,86.8,125.1c0-13.8,6.8-26.1,17.2-33.6
			c9,17.3,27,29.2,47.9,29.2c6,0,11.9-1,17.3-2.9c-0.7-4.1-2.1-8.1-4-11.7c-4.2,1.4-8.7,2.2-13.3,2.2c-16,0-30-9.2-36.9-22.5
			c4.2-1.4,8.7-2.2,13.3-2.2c16,0,30,9.2,36.9,22.5c4-1.3,7.7-3.3,11-5.7c-9-17.3-27-29.2-47.9-29.2c-6,0-11.9,1-17.3,2.9
			c-0.4-2.4-0.7-4.8-0.7-7.3c0-22.9,18.6-41.5,41.5-41.5s41.5,18.6,41.5,41.5c0,13.8-6.8,26.1-17.2,33.6c1.9,3.7,3.4,7.7,4.5,11.9
			C195.7,102.8,205.7,85.9,205.7,66.8z"/>
		<path class="st1" d="M83.8,33.7c0,4.6-0.8,8.6-2.4,12.2c-1.6,3.5-3.9,6.5-6.8,8.9c-2.9,2.4-6.5,4.2-10.6,5.5
			c-4.1,1.2-8.8,1.9-13.9,1.9H39.2v33.4H28.9L28.8,7.4h21.7c4.7,0,9,0.5,13.1,1.5c4,1,7.6,2.6,10.6,4.7s5.4,4.9,7.1,8.2
			C83,25.1,83.8,29.1,83.8,33.7z M73.1,33.9c0-3.6-0.7-6.6-2-9c-1.3-2.3-3-4.1-5.2-5.5c-2.1-1.3-4.6-2.2-7.4-2.7
			c-2.8-0.5-5.7-0.8-8.7-0.8H39v37.7h9.1c3.5,0,6.8-0.3,9.8-0.9c3.1-0.6,5.7-1.7,8-3.2c2.2-1.5,4-3.5,5.3-6.1S73.1,37.7,73.1,33.9z"
			/>
		<path class="st1" d="M261.4,57.9l21.8,37.6h-13l-18.3-35.7h-17.1v35.7h-10.2l-0.1-88.1h25c10,0,17.6,2.3,22.8,6.8
			c5.2,4.5,7.8,10.6,7.8,18.2c0,7.1-1.6,12.6-4.8,16.8C272.1,53.3,267.5,56.2,261.4,57.9z M269.7,32.6c0-2.9-0.5-5.5-1.5-7.6
			s-2.4-3.8-4.1-5.2s-3.8-2.3-6-3c-2.3-0.6-4.8-0.9-7.4-0.9h-15.9v35.6H247c3.8,0,7.1-0.3,9.9-0.9c2.8-0.6,5.2-1.6,7.1-3.1
			c1.9-1.4,3.3-3.4,4.3-5.8C269.2,39.3,269.7,36.3,269.7,32.6z"/>
		<path class="st1" d="M323.5,95.3h-10.2V16.1h-30.1V7.4h70.3v8.7h-30V95.3z"/>
		<path class="st1" d="M59.8,100.7v8.7H18.1v27.4h40v8.6h-40v43.3H7.9v-88.1L59.8,100.7L59.8,100.7z"/>
		<path class="st1" d="M250.2,179.8v9h-50.4v-88.1H210v79.1H250.2z"/>
		<path class="st1" d="M284.8,100.7l-15.5,88.1h-10.2l15.5-88.1H284.8z"/>
		<path class="st2" d="M331.1,195.4c-25.5,0-46.3-20.8-46.3-46.3s20.8-46.3,46.3-46.3s46.3,20.8,46.3,46.3S356.6,195.4,331.1,195.4z
			 M331.1,113.4c-19.7,0-35.7,16-35.7,35.7s16,35.7,35.7,35.7s35.7-16,35.7-35.7C366.8,129.4,350.8,113.4,331.1,113.4z"/>
	</g>
	<g>
		<path class="st3" d="M293.1,92.9c-2.1,1.3-4.8,0.5-6.5,2.2c1.6,3,4.1,4.6,7.7,3.7c0.2-0.1,0.4,0,0.6,0c0.9,0.2,1-0.3,1-1.1
			c-0.1-1.5-0.6-2.8-1.1-4.2C294.5,92.6,293.9,92.4,293.1,92.9z"/>
		<path class="st3" d="M317.6,120.4c0-0.2,0-0.3,0-0.5C317.6,120.1,317.6,120.3,317.6,120.4z"/>
		<path class="st3" d="M296.4,119c-0.1,0-0.1,0.1-0.2,0.1C296.3,119.1,296.4,119,296.4,119z"/>
		<path class="st4" d="M377.4,120.2c-0.3-5.3-1.5-10.4-3.3-15.4C370,93,363.8,82.2,357,71.8c-4.5-6.9-10.2-12.9-16.2-18.5
			C336.3,49,331.7,45,327,41c-4.2-3.4-8.6-6.7-13.2-9.6c-6.7-4.2-13.9-5.4-21.5-5.3c-3.9,0-7.9,0.8-11.7,1.7
			c-9.2,2.2-16.3,7.4-20.8,15.9c-6,11.4-2.6,23.3,8.5,29.9c2.1,1.3,4.3,2.6,6.4,4c2.7,1.7,5.5,3.2,8.4,4.5c0.5,0.2,1.5,0.3,1,1.3
			c-0.5,1-2,1.8-0.3,3c0,0-0.1,0.3-0.1,0.4c-0.3,1.2-0.5,2.3-1,3.4c-0.4,0.8-0.9,1.8-0.8,2.6c0.1,0.7,1.3,0.5,1.9,1
			c0.1,0.1,0.1,0.2,0.2,0.3c-0.6,0.5-1.3,0.5-2.1,0.4c-0.9-0.1-1.9,0-2.7,0.4c-2.2,1.1-4,2.7-5.4,4.7c-1.3,1.9-2.2,4-1.6,6.5
			c1,4.4,3.2,6.5,7.9,7.2c1.3,0.2,1.8,0.6,2.1,1.9c0.5,2.5,1.9,3.2,4.3,2.5c0.9-0.3,1.7-0.7,2.4-1.3c1.3-1.9,1-4,1-6.3
			c1.2,0.5,2.3,0.3,3.7,0.4c-1.3,2.4-2.9,4.6-4.6,6.5c-0.6,1.1-1.5,2-2.3,2.9c-3.6,4.1-8,7.3-12.2,10.7c-4.8,3.9-8.6,8.6-10.9,14.4
			c-2.7,6.6-3,13.6-2,20.6c1.1,7.8,5.1,13.9,10.9,19.1c6.9,6.1,15.1,9,24.1,10.1c5.6,0.7,11.2,0.5,16.7,0.2
			c9.8-0.6,18.9-3.2,27.2-8.7c3.5-2.3,6.7-5.2,9.8-8c6-5.4,11.7-11.1,15.9-18c4.9-7.8,7.2-16.5,9.5-25.3
			C376.9,130.3,377.6,125.3,377.4,120.2z M342,56.8c0.8,1,1.9,1.9,2.9,2.9c-4.5,4.9-9.3,9.5-14.9,13.2c-4.6,3-9.5,5.5-14.7,7.6
			c-2.8,1.1-5.5,2.4-8.2,3.9c-3,1.6-6.1,2.9-9.2,4.3c-2.3,1.1-4.6,2.3-7,3.4c-1,0.5-1.8,0.5-2.3-0.8c-0.7-1.9-1.6-3.7-2.4-5.5
			c-0.3-0.6-0.6-1,0.4-1.2c3.2-0.6,6.3-1.9,9.3-3.2c5.6-2.3,11.1-4.8,16.6-7.2c6-2.6,12-5.3,17.6-8.6c3.8-2.3,7.3-5,9.8-8.7
			C340.6,55.9,341.1,55.8,342,56.8z M294.9,93.6c0.5,1.4,1,2.7,1.1,4.2c0,0.8-0.1,1.2-1,1.1c-0.2,0-0.4-0.1-0.6,0
			c-3.7,0.9-6.1-0.7-7.7-3.7c1.8-1.7,4.5-0.9,6.5-2.2C293.9,92.4,294.5,92.6,294.9,93.6z M282.7,80.2c-5.5-2.4-10.6-5.7-15.7-9.1
			c-4.3-2.8-7.4-6.8-8.4-12.1c-0.3-1.6-0.6-3.2-0.5-4.8c0.4-5.3,2.2-10,5.5-14.1c4.5-5.9,10.5-9.8,17.9-11.2
			c3.8-0.8,7.6-1.4,11.5-1.6c2.9-0.2,5.7,0.7,8.6,0.9c6,0.5,10.8,3.9,15.7,6.8c0.3,0.2,0.6,0.3,0.8,0.5c1.8,3.2,5.3,4.4,7.8,6.7
			c4.3,4,9.2,7.5,13.2,11.8c0.5,0.6,0.6,0.9,0.1,1.5c-3.4,4.2-7.6,7.2-12.3,9.8c-6.6,3.7-13.7,6.2-20.5,9.4
			c-6,2.9-12.2,5.6-18.4,7.9c-0.8,0.3-1.3,0.7-2-0.5C285.4,81.3,283.9,80.8,282.7,80.2z M282.4,92.4c2.4-1.2,1.8-3.7,2.8-5.5
			c0.9,2.2,1.8,4.3,2.7,6.5C285.9,93.6,284.3,93,282.4,92.4z M287.8,113.8c-0.1,1.6-1.7,2.9-3.2,2.4c-1.3-0.4-1.2-1.7-1.4-2.7
			c-0.2-0.7,0.8-0.6,1.3-0.7c1.8-0.4,1.8-0.4,3.4-1.6C287.8,112.2,287.9,113,287.8,113.8z M281.5,111.8c-5.3-0.5-7.6-2.3-8-7
			c-0.3-3.3,4.6-8.7,7.6-8.6c5,0.2,8,3.3,8.5,8.3C290,108.4,285.9,111.8,281.5,111.8z M291.5,109.4c-0.6,0-1.1,0-1.8,0
			c0.3-0.6,0.4-1.1,0.7-1.5c1-2,1.1-4.2,0.3-6.3c-0.3-0.7-0.3-0.9,0.6-1c5.3-0.7,5.6-0.4,4.5,4.8c-0.1,0.3-0.1,0.6-0.2,0.9
			C294.7,109.1,294.4,109.4,291.5,109.4z M275.8,185.6c-5.3-3.8-9.3-8.6-11.4-14.6c-4.3-12.1-1.5-26.5,6.3-34.1
			c2.5,6.2,3.9,12.7,5.4,19c2.3,9.6,5,19.2,7.9,28.7c0.3,0.8-0.3,1.6,0.1,2.3c0.2,0.3-0.1,1.3,0.9,0.5c0.3-0.2,1.3,0.5,1.9,0.8
			c2.2,1,4.2,2.3,5.8,4.3C286.6,191.4,280.9,189.4,275.8,185.6z M373.9,134.8c-1.5,5.8-3.2,11.5-5.4,17.1
			c-2.3,5.7-5.6,10.7-9.6,15.3c-5.4,6.2-11.5,11.7-18,16.7c-5.6,4.4-12.1,7-19,8.5c-3.7,0.8-7.5,1-11.2,1.3
			c-3.4,0.2-6.9,0.3-10.3,0.1c-2.6-0.2-5-0.1-6.9-2.5c-1.9-2.3-4.6-3.6-7.4-4.7c-0.2-0.1-0.6,0.1-0.6-0.3c0.1-3.4-1.4-6.5-2.4-9.6
			c-2.8-9.3-4.9-18.7-7.5-28c-1.1-3.8-2.2-7.6-3.8-11.2c-0.5-1.2-0.1-1.9,0.7-2.7c3.3-2.8,6.7-5.5,9.9-8.4
			c6.1-5.5,11.6-11.4,14.1-19.4c1.5-4.8,1.6-9.7-0.6-14.4c-0.6-1.2,0.4-1.2,0.9-1.4c3-1.3,6.2-2.4,9.2-4c7.3-3.9,15.3-6.5,22.4-10.9
			c4.3-2.6,8.3-5.5,11.6-9.4c1.8-2.1,4.1-3.9,5.1-6.8c5.2,5.9,10.1,11.7,13.9,18.4c2.7,4.8,5.4,9.5,7.9,14.4
			c3.8,7.3,6.7,14.8,8.1,22.9C376.2,122.2,375.5,128.5,373.9,134.8z"/>
		<path class="st5" d="M367,92.9c-2.5-4.9-5.2-9.6-7.9-14.4c-3.8-6.7-8.6-12.5-13.9-18.4c-1.1,2.9-3.4,4.7-5.1,6.8
			c-3.3,3.9-7.3,6.7-11.6,9.4c-7.1,4.3-15,7-22.4,10.9c-2.9,1.6-6.1,2.7-9.2,4c-0.6,0.3-1.5,0.3-0.9,1.4c2.3,4.7,2.1,9.6,0.6,14.4
			c-2.5,8-8.1,13.9-14.1,19.4c-3.2,2.9-6.6,5.6-9.9,8.4c-0.9,0.7-1.2,1.5-0.7,2.7c1.5,3.6,2.7,7.4,3.8,11.2c2.6,9.3,4.6,18.8,7.5,28
			c0.9,3.2,2.4,6.2,2.4,9.6c0,0.4,0.4,0.2,0.6,0.3c2.7,1.2,5.5,2.4,7.4,4.7c1.9,2.4,4.4,2.3,6.9,2.5c3.4,0.3,6.9,0.2,10.3-0.1
			c3.8-0.3,7.5-0.4,11.2-1.3c6.9-1.6,13.4-4.2,19-8.5c6.5-5,12.6-10.5,18-16.7c4-4.6,7.4-9.7,9.6-15.3c2.2-5.5,3.9-11.3,5.4-17.1
			c1.6-6.2,2.3-12.6,1.2-19C373.7,107.7,370.8,100.1,367,92.9z M279,137.2c-1.2,0-1.6-0.8-1.7-1.8c-0.2-1.5,0.7-2.8,1.7-2.9
			c1.2-0.1,1.9,0.8,2,2.1C281,135.9,280.1,137.2,279,137.2z M287,130.3c-1.3-0.1-1.7-1-1.7-2.2c0-1.3,0.9-2.2,2.1-2.2
			c1.3,0.1,1.3,0.9,1.4,1.7C288.8,129.2,288,130.4,287,130.3z M294.1,116.9c0-1,0.4-2.1,1.8-2.1c0.2,0,0.3,0,0.4,0
			c0.9,0.2,1.3,0.8,1.3,1.9c0,0.9-0.5,1.8-1.1,2.2c-0.1,0-0.1,0.1-0.2,0.1c-0.1,0-0.2,0.1-0.3,0.1c-0.1,0-0.2,0-0.3,0
			C294.3,119.1,294.1,118,294.1,116.9z M352.2,144.7c-1.4,1.5-3,2.6-4.9,3.2c-0.6,0.2-0.7,0.8-1,1.3c-1.8,2.8-3.6,5.4-6.7,7
			c-5.6,2.9-12.3,0.9-16-3.7c-1.9-2.4-1.9-2.4-4.3-0.4c-0.9,0.8-1.5,1.7-2.3,2.9c2.2,0.1,3.8,0.9,4.1,3.2c0.1,0.4,0.8,0.5,1.2,0.7
			c2.2,0.9,3.5,3.1,3.4,5.3c0,0.5,0,1-0.4,1.3c-1.1,0.8-1,1.8-0.9,3c0.3,3-1.4,4.7-4.6,4.7c-1.8,0-2.9,1.1-3.6,2.5
			c-0.8,1.6-2.1,2.4-3.9,2.2c-0.4-0.1-0.7-0.4-1.2,0c-1.7,1.5-3.7,1.8-5.6,0.8c-2.3-1.2-3.7-3.2-3.7-5.9c-0.4-0.2-0.7,0.3-1,0.5
			c-2,1.2-4.3,0-4.5-2.3c-0.2-1.6-0.1-3.3,0.8-4.7c0.8-1.3,0-1.7-0.9-2c-1.8-0.7-2.5-1.9-2.4-3.8c0.1-2.1,1.2-3.4,3.2-3.8
			c0.5-0.1,0.9-0.2,1.4-0.2c1,0,1.7-0.2,1.8-1.5c0.4-2.8,3.5-4.1,5.9-2.7c0.9,0.5,1.7,1,2.4,1.6c3.2-3,5.7-4.1,8-1
			c1.1-1.5,2.4-2.6,4.1-3.2c0.9-0.3,0.4-0.8,0.3-1.2c-0.8-2.1-1.8-4.2-2.5-6.4c-1.2-3.5-1.5-7.1-1.7-10.7c-0.2-4.2,0-8.5,0-12.7
			c-0.3-0.4-0.7-0.6-1-0.1c-0.8,1.2-2,1.3-3.2,1.6c-1.4,0.5-2.8,1-4.2,1.5c-1.2,0.4-2.2,0.1-2.9-1c-1.1-1.7-2.3-3.3-3.5-5
			c-0.4-0.6-0.7-1.1-0.4-1.8c1.1-3.1,1.9-6.3,2.7-9.5c0.2-0.9,0.7-1.4,1.7-1.2c3.8,0.7,7.5,1.4,11.1,2.9c0.1,0,0.2-0.1,0.3-0.1
			c0.5-5.1,0.3-10.2,1.5-15.2c-0.2,5.1-0.4,10.1-0.6,15.2c0,0.1,0,0.2,0,0.3c0,1.3,0,2.5-0.1,3.8c0,0.5,0.2,1.1-0.5,1.3
			c0.3,0.2,0.3,0.5,0.3,0.8c-0.4,3.2,0.3,6.5-0.1,9.7c0,0.4,0.1,0.8,0.1,1.2c0,0.2,0,0.3,0,0.5c10.8-3.4,20.7-0.8,30.1,4.9
			c0.1-3.2-0.3-6.2-0.5-9.2c-0.5-7.5-2.1-14.8-2-22.4c0-0.3,0-0.6,0-0.9c0-0.7,0-1.4,0.8-1.4c1-0.1,1,0.7,1,1.4
			c-0.1,4.2,0.5,8.4,1,12.6c1,8,1.8,16,1.8,24.2c0,4.1-0.9,8.1-2.1,11.9c-0.1,0.4-0.2,0.8-0.3,1.2c0,0.1,0,0.2,0.1,0.4
			c1.4-0.5,2.3-1.6,3.4-2.6c0.6-0.6,1.5-1.8,2.3-0.8C354.3,143.8,352.8,144.1,352.2,144.7z"/>
		<path class="st6" d="M286,82.4c0.7,1.1,1.1,0.8,2,0.5c6.3-2.2,12.4-5,18.4-7.9c6.8-3.2,13.9-5.7,20.5-9.4
			c4.7-2.6,8.9-5.6,12.3-9.8c0.5-0.7,0.4-1-0.1-1.5c-4.1-4.3-8.9-7.7-13.2-11.8c-2.5-2.3-6-3.6-7.8-6.7c-0.2-0.3-0.5-0.4-0.8-0.5
			c-4.9-2.9-9.7-6.3-15.7-6.8c-2.9-0.3-5.8-1.1-8.6-0.9c-3.9,0.2-7.7,0.9-11.5,1.6c-7.4,1.4-13.3,5.3-17.9,11.2
			c-3.3,4.1-5.1,8.8-5.5,14c-0.1,1.6,0.3,3.2,0.5,4.8c1,5.3,4.1,9.2,8.4,12.1c5,3.3,10.1,6.6,15.7,9.1
			C283.9,80.8,285.4,81.3,286,82.4z M303.2,55.4c0,1.2,0,2,0,2.9c0,0.3-0.1,0.5-0.4,0.5c-0.4,0-0.5-0.3-0.5-0.6
			C302.2,57.3,302.2,56.3,303.2,55.4z M300.1,57.3c0.3-0.7,0.1-1.8,1.1-2.2c0.2-0.1,0.4,0.3,0.3,0.7c-0.5,0.6-0.1,1.7-1,2.2
			C300.3,58.1,300,57.6,300.1,57.3z M298.2,57.3c0-0.9,0.6-1.6,0.9-2.4c0.6,1-0.1,1.8-0.2,2.7c0,0.1-0.3,0.3-0.5,0.3
			C298.1,57.9,298.2,57.5,298.2,57.3z M291.4,41.7c2.6,0,5.8,3.4,5.8,6.1c0,3.1-2.6,6.3-5.2,6c-3.6-0.4-6.5-1.7-6.4-6.1
			C285.6,44.7,288.5,41.7,291.4,41.7z M266.2,58.5c-0.5-1.8,0.5-3.3,1.4-4.8C267.1,55.3,266.6,56.9,266.2,58.5z M268.1,58.6
			c-0.3-1.1,0.4-2,0.8-3C269.2,56.7,268.7,57.6,268.1,58.6z M269.6,46.5c0-2.8,2.4-5.2,5.2-5.2c2.8,0,4.9,2.2,4.9,5.1
			c0,3.4-1.7,5.3-4.7,5.3C272,51.7,269.6,49.4,269.6,46.5z M281.6,69.5c-0.6,1.2-0.9,2.8-2.5,2.9c-1.6,0.2-1.7-1.6-2.5-2.5
			c-1.8-2.1-2-4.9-3.1-7.2c-0.9-1.9,0.6-3.5,2.7-3.1c2.9,0.6,5.8,0.3,8.7,0.2c1.9-0.1,3.9-0.2,5.8-0.1c1.1-0.4,2.1-0.2,3.1,0.3
			c1.2-0.3,1.7,0.3,1.5,1.3c-0.8,3.8-1.6,7.5-3.4,11c-1.1,2.2-2.7,2.2-3.9,0.1c-1.3-2.4-2.5-5-3.8-7.6
			C283.2,66.1,282.4,67.9,281.6,69.5z"/>
		<path class="st6" d="M286.9,188.3c-0.7-0.3-1.7-1-1.9-0.8c-1,0.8-0.7-0.2-0.9-0.5c-0.4-0.8,0.2-1.5-0.1-2.3
			c-2.9-9.5-5.6-19-7.9-28.7c-1.5-6.4-2.9-12.8-5.4-19c-7.8,7.7-10.6,22-6.3,34.1c2.1,6,6.1,10.8,11.4,14.6c5.1,3.8,10.8,5.8,17,6.9
			C291.1,190.6,289.1,189.3,286.9,188.3z"/>
		<path class="st5" d="M330.1,65.7c-5.6,3.4-11.6,6-17.6,8.6c-5.5,2.4-11,4.9-16.6,7.2c-3,1.2-6.1,2.5-9.3,3.2
			c-1,0.2-0.7,0.6-0.4,1.2c0.8,1.8,1.8,3.6,2.4,5.5c0.5,1.3,1.2,1.3,2.3,0.8c2.3-1.1,4.6-2.3,7-3.4c3.1-1.4,6.3-2.7,9.2-4.3
			c2.7-1.5,5.4-2.8,8.2-3.9c5.1-2.1,10-4.6,14.7-7.6c5.6-3.6,10.4-8.3,14.9-13.2c-1-1-2-1.9-2.9-2.9c-0.8-1-1.3-0.9-2,0.1
			C337.4,60.7,333.9,63.4,330.1,65.7z"/>
		<path class="st7" d="M289.6,104.5c-0.5-5-3.5-8.1-8.5-8.3c-3-0.1-7.9,5.3-7.6,8.6c0.4,4.8,2.8,6.5,8,7
			C285.9,111.8,290,108.4,289.6,104.5z M281.6,105.3c1.2,1.8,0.1,3.7-2.3,3.7c-0.3-0.1-0.7-0.2-1.1-0.4c-0.3-0.2-0.5-0.5-0.3-0.9
			c0.2-0.3,0.4-0.4,0.8-0.4c0.3,0.1,0.6,0.2,0.9,0.2c0.6,0,1.3-0.2,1.4-0.8c0.2-0.7-0.6-0.7-1-1c-0.3-0.2-0.6-0.2-0.9-0.3
			c-0.3-0.2-0.6-0.4-0.6-0.8c0.1-0.5,0.4-0.6,0.8-0.6c1.2,0.1,2.2-0.1,2.2-1.5c0-1.3-0.9-1.8-2.2-1.9c-0.3,0-0.7,0.1-0.8-0.3
			c0-0.5,0.4-0.6,0.8-0.6c1.1,0,2.1,0.3,2.7,1.3c0.7,1,0.8,2.1,0,3.2C281.8,104.4,281.2,104.6,281.6,105.3z"/>
		<path class="st7" d="M295.5,106.2c0.1-0.3,0.1-0.6,0.2-0.9c1.1-5.2,0.8-5.5-4.5-4.8c-0.8,0.1-0.9,0.3-0.6,1
			c0.8,2.1,0.8,4.2-0.3,6.3c-0.2,0.4-0.4,0.9-0.7,1.5c0.7,0,1.3,0,1.8,0C294.4,109.4,294.7,109.1,295.5,106.2z"/>
		<path class="st5" d="M287.8,93.3c-0.9-2.2-1.8-4.3-2.7-6.5c-0.9,1.9-0.3,4.3-2.8,5.5C284.3,93,285.9,93.6,287.8,93.3z"/>
		<path class="st7" d="M284.5,112.9c-0.4,0.1-1.5,0-1.3,0.7c0.3,0.9,0.1,2.3,1.4,2.7c1.5,0.4,3.2-0.9,3.2-2.4c0-0.8,0-1.5,0-2.5
			C286.3,112.5,286.3,112.4,284.5,112.9z"/>
		<path class="st8" d="M351.1,143.7c-1.1,0.9-2,2-3.4,2.6c0-0.2-0.1-0.3-0.1-0.4c0.1-0.4,0.2-0.8,0.3-1.2c1.2-3.9,2.1-7.8,2.1-11.9
			c0-8.1-0.8-16.1-1.8-24.2c-0.5-4.2-1-8.4-1-12.6c0-0.7,0-1.5-1-1.4c-0.8,0.1-0.9,0.8-0.8,1.4c0,0.3,0,0.6,0,0.9
			c0,7.5,1.5,14.9,2,22.4c0.2,3,0.6,6,0.5,9.2c-9.4-5.8-19.3-8.3-30.1-4.9c0-0.2,0-0.3,0-0.5c0-0.5-0.1-0.8-0.1-1.2l0,0
			c-0.3-0.5-0.3-0.9-0.3-1.4c0-0.2,0-0.3,0-0.5c0-0.3,0-0.6,0-0.9c0-1.1-0.5-0.6-0.9-0.3c0,4.2-0.2,8.5,0,12.7
			c0.2,3.6,0.5,7.2,1.7,10.7c0.7,2.2,1.7,4.2,2.5,6.4c0.2,0.4,0.6,0.8-0.3,1.2c-1.7,0.6-3,1.8-4.1,3.2c-2.3-3.1-4.8-2.1-8,1
			c-0.7-0.7-1.6-1.2-2.4-1.6c-2.4-1.3-5.5-0.1-5.9,2.7c-0.2,1.4-0.8,1.5-1.8,1.5c-0.5,0-0.9,0.1-1.4,0.2c-2.1,0.4-3.2,1.7-3.2,3.8
			c-0.1,1.8,0.6,3.1,2.4,3.8c0.9,0.3,1.7,0.7,0.9,2c-0.8,1.4-0.9,3.1-0.8,4.7c0.2,2.3,2.4,3.4,4.5,2.3c0.3-0.2,0.6-0.6,1-0.5
			c0.1,2.8,1.4,4.7,3.7,5.9c2,1,3.9,0.7,5.6-0.8c0.4-0.4,0.8,0,1.2,0c1.8,0.3,3.1-0.6,3.9-2.2c0.7-1.4,1.8-2.5,3.6-2.5
			c3.2,0,4.9-1.7,4.6-4.7c-0.1-1.2-0.2-2.2,0.9-3c0.4-0.3,0.4-0.8,0.4-1.3c0.1-2.2-1.3-4.4-3.4-5.3c-0.4-0.2-1.1-0.2-1.2-0.7
			c-0.3-2.3-1.9-3.1-4.1-3.2c0.8-1.2,1.4-2.1,2.3-2.9c2.3-2.1,2.3-2,4.3,0.4c3.7,4.6,10.4,6.6,16,3.7c3.1-1.6,5-4.2,6.7-7
			c0.3-0.5,0.4-1.1,1-1.3c1.9-0.6,3.5-1.7,4.9-3.2c0.5-0.6,2.1-0.9,1.2-1.9C352.6,141.9,351.8,143.1,351.1,143.7z M312.9,176.7
			c-0.3-0.1-1,0.1-0.8-0.5c0.2-0.6-0.1-1.7,0.8-1.7c0.7,0,1.8,0.3,1.8,1C314.8,176.1,313.9,176.7,312.9,176.7z M319.3,172.2
			c-0.1,0-0.1,0-0.2,0c-0.4-1.1-0.2-2.3-0.3-3.5c0-0.8,0.7-0.5,1.1-0.5c0.7-0.1,1.3-0.1,2-0.2c1.1-0.2,1.3-0.1,1.3,1
			C323.2,170.7,320.9,172.6,319.3,172.2z M320.8,159.8c1.8,0.4,3.7,2.2,3.7,3.9c0,0.4,0.2,1-0.3,1.2c-1.3,0.6-2.1,2.3-3.9,1.9
			c-0.3-0.1-0.5,0-0.8,0c-1.3,0-2.3,0.3-1.8,2c0.1,0.4,0.2,0.8,0.1,1.2c-0.1,1.3,0,2.7-1.4,3.4c-1.3,0.6-2.9,0.2-4.1-1
			c-0.4-0.3-0.4-1.3-1.2-1c-0.7,0.3-0.5,1.2-0.5,1.8c0,0.6,0.3,1.3,0.2,1.8c-0.3,2.9-3.4,3.4-5,2.3c-2.2-1.3-2.9-3-2.4-5.8
			c0.1-0.3-0.3-0.8-0.5-1.3c-0.8,1.4-1.9,2-3.4,2.1c-1.1,0.1-1.8-0.4-1.8-1.6c-0.3-3.8,2-7.9,6.3-8.2c0.4,0,1.1,0.1,1.1-0.6
			c0-0.5-0.7-0.5-1.1-0.6c-2.2-0.4-3.9,0.6-5.2,2.1c-0.9,1-1.5,1-2.2-0.2c-0.3-0.5-0.7-1-0.9-1.6c-0.7-1.7-0.3-2.8,1.4-3.5
			c0.9-0.4,1.9-0.3,2.9-0.6c1.2-0.3,1.4,1,2.1,1.6c1.3,1.3,2.1,1.6,3.5,1.3c0.1-0.5-0.4-0.7-0.7-0.7c-2-0.4-2.8-2.2-3.5-3.7
			c-0.4-0.9-0.2-2,0.6-2.7c0.9-0.8,1.9-1,3-0.4c3,1.6,4.9,3.9,5.1,7.4c0,0.2,0.1,0.4,0.5,0.5c0.7-1.4,0.2-2.9-0.2-4.3
			c-0.3-0.8-0.9-1.7-0.3-2.4c0.9-1.1,2.1-1.9,3.6-2c1.1-0.1,2,1.8,1.3,2.7c-1.5,1.8-2.6,3.9-3.4,6c-0.3,0.8-0.7,0.9-1.5,0.9
			c-2.9,0.1-5.2,3.1-4.3,5.7c0.7,1.9,2.3,2.7,4.2,3c3,0.5,6.1-2.3,5.8-5.2c-0.2-1.3-1-2.1-1.9-2.9c-0.7-0.7-0.8-1.1,0.3-1.5
			C316.3,160,318.4,159.3,320.8,159.8z M314.3,166c0,1.5-2.1,3.2-4.1,3.1c-1.6,0-3.3-1.4-3.3-2.8c0-1.4,2.3-3.5,3.9-3.5
			C312.4,162.9,314.3,164.6,314.3,166z M318.8,156.4c0.7,0.3,1.1,1,1,1.6c-0.1,0.5-0.9,0.3-1.4,0.4c-1.1,0-2,0.3-3,0.8
			c-0.3,0.1-0.5,0.5-0.8,0.2c-0.3-0.3-0.2-0.6,0-0.9c0.5-0.8,1-1.6,1.5-2.3c0.2-0.3,0.4-0.5,0.8-0.4
			C317.5,156,318.2,156.2,318.8,156.4z M346.7,143.6c-1,3.2-2.3,6.2-4.5,8.7c-3.1,3.5-9.2,4.7-13.5,2.3c-5.5-3-7.5-8.3-9.2-13.8
			c-0.3-1,0.7-0.9,1.2-1.1c2.7-0.7,5.4-1,7.8-1.1c6.2,0.2,12.1,0.5,17.4,3.2C346.7,142.3,346.9,142.7,346.7,143.6z M346.3,140.4
			c-6.2-3.1-12.9-3.3-19.7-3.1c-2.2,0.1-4.4,0.6-6.5,1.3c-0.8,0.3-1.2,0.3-1.3-0.7c-0.7-3.9-0.9-7.7-0.9-11.6c0-0.4,0.1-0.6,0.6-0.8
			c5.9-1.9,11.7-1.6,17.7-0.3c4,0.9,7.5,2.9,11.3,4.2c0.6,0.2,0.7,0.7,0.7,1.2c0,1,0,2,0,3.2c0.1,1.9-0.1,3.9-0.6,6
			C347.5,140.5,347.2,140.8,346.3,140.4z"/>
		<path class="st8" d="M308.4,121c-0.3,0.1-0.6,0.6-0.8-0.1c-0.7-2.2-2.5-3.7-3.6-5.6c-0.4-0.8-0.4-1.4-0.2-2.2
			c0.7-2.2,1.3-4.4,1.8-6.7c0.3-1.2,0.8-1.5,2-1.3c2.9,0.5,5.7,1.4,8.6,1.8c1.1,0.1,0.3,1.1,0.6,1.6c0.5-0.8,0.2-1.6,0.3-2.4
			c-3.5-1.5-7.3-2.2-11.1-2.9c-1-0.2-1.4,0.4-1.7,1.2c-0.8,3.2-1.6,6.4-2.7,9.5c-0.3,0.8,0,1.3,0.4,1.8c1.2,1.6,2.4,3.3,3.5,5
			c0.8,1.2,1.7,1.4,2.9,1c1.4-0.5,2.8-1,4.2-1.5c-0.1-0.3-0.2-0.6-0.3-0.9C311,119.9,309.7,120.4,308.4,121z"/>
		<path class="st9" d="M317.6,119c0,0.3,0,0.6,0,0.9c0,0.2,0,0.3,0,0.5c0,0.5,0,0.9,0.3,1.4l0,0c0.4-3.2-0.3-6.5,0.1-9.7
			c0-0.3,0-0.6-0.3-0.8c0.7-1.4-0.2-3,0.3-4.4c0.1-0.3,0.2-0.5,0.3-0.7c0-0.1,0-0.2,0-0.3c-0.3,0-0.6,0-0.9,0
			c-0.1,0-0.2,0.1-0.3,0.1c-0.1,0.8,0.3,1.6-0.3,2.4c-0.5,2-0.3,4-0.3,6c0,2.8-0.1,2.9-2.7,4c-0.5,0.2-1.1,0.3-1.5,0.8
			c0.1,0.3,0.2,0.6,0.3,0.9c1.2-0.3,2.4-0.4,3.2-1.6c0.3-0.5,0.7-0.3,1,0.1C317.1,118.4,317.6,117.9,317.6,119z"/>
		<path class="st8" d="M279,132.4c-1,0.1-1.8,1.3-1.7,2.9c0.1,1,0.6,1.8,1.7,1.8c1.1,0,2-1.2,1.9-2.6
			C280.9,133.2,280.2,132.4,279,132.4z"/>
		<path class="st8" d="M318.8,90.7c-1.3,5-1.1,10.1-1.5,15.2c0.3,0,0.6,0,0.9,0C318.4,100.8,318.6,95.7,318.8,90.7z"/>
		<path class="st8" d="M287.5,125.9c-1.2-0.1-2.1,0.8-2.1,2.2c0,1.2,0.4,2.1,1.7,2.2c1,0.1,1.8-1,1.8-2.6
			C288.8,126.8,288.7,126,287.5,125.9z"/>
		<path class="st8" d="M295.7,119.2c0.1,0,0.3,0,0.3,0c0.1,0,0.2-0.1,0.3-0.1c0.1,0,0.1-0.1,0.2-0.1c0.6-0.4,1.1-1.3,1.1-2.2
			c0.1-1-0.4-1.7-1.3-1.9c-0.1,0-0.3,0-0.4,0c-1.3,0-1.7,1.1-1.8,2.1C294.1,118,294.3,119.1,295.7,119.2z M295.2,116.7
			c0.2-0.2,0.7-0.3,0.8-0.1c0.4,0.6-0.1,1-0.5,1.6C295.2,117.6,294.7,117.3,295.2,116.7z"/>
		<path class="st8" d="M317.6,111.3c0.7-0.3,0.5-0.9,0.5-1.3c0.1-1.3,0-2.5,0.1-3.8c-0.1,0.2-0.2,0.5-0.3,0.7
			C317.5,108.4,318.3,109.9,317.6,111.3z"/>
		<path class="st8" d="M291.9,72.1c1.7-3.4,2.6-7.2,3.4-11c0.2-0.9-0.3-1.6-1.5-1.3c-0.3,0.6-0.6,1.2-0.9,1.8c0.4,1.1-0.1,2-0.4,2.9
			c-0.1,0.3-0.2,0.6-0.3,0.9c-0.4,2-1.1,3.9-2.2,6.1c-1.7-3.3-3.3-6.4-4.5-9.6c-0.3-0.8,0.3-0.8,0.7-0.8c1.2-0.1,2.4-0.1,3.6,0.2
			c-0.3-0.9,0.8-1.1,0.9-1.7c-1.9-0.1-3.9,0.1-5.8,0.1c-2.9,0.1-5.8,0.5-8.7-0.2c-2.1-0.5-3.6,1.2-2.7,3.1c1.1,2.4,1.4,5.2,3.1,7.2
			c0.8,0.9,0.9,2.6,2.5,2.5s1.9-1.8,2.5-2.9c0.8-1.6,1.6-3.4,2.6-4.9c1.3,2.6,2.4,5.2,3.8,7.6C289.1,74.3,290.8,74.3,291.9,72.1z
			 M282.8,62.6c-1.3,2.4-2.5,4.9-3.8,7.3c-2.2-2.4-2.9-5.2-4.3-7.7c-0.4-0.7-0.4-1.3,0.8-1c2.1,0.4,4.3,0.2,6.4,0.2
			C283,61.4,283.4,61.4,282.8,62.6z"/>
		<path class="st9" d="M292,53.8c2.5,0.3,5.1-2.9,5.2-6c0-2.7-3.2-6-5.8-6.1c-2.9,0-5.9,3-5.8,6C285.5,52.1,288.4,53.4,292,53.8z"/>
		<path class="st10" d="M279.7,46.4c0-2.9-2.1-5.1-4.9-5.1c-2.8,0-5.2,2.4-5.2,5.2c0,2.9,2.3,5.1,5.3,5.2
			C278,51.7,279.7,49.8,279.7,46.4z"/>
		<path class="st4" d="M289.7,61.3c1,0.4,2.1,0.4,3.1,0.3c0.3-0.6,0.6-1.2,0.9-1.8c-1-0.5-2-0.7-3.1-0.3
			C290.5,60.3,289.5,60.5,289.7,61.3z"/>
		<path class="st8" d="M266.2,58.5c0.5-1.6,0.9-3.2,1.4-4.8C266.7,55.2,265.7,56.6,266.2,58.5z"/>
		<path class="st8" d="M302.7,58.9c0.3,0,0.4-0.3,0.4-0.5c0-0.9,0-1.8,0-2.9c-1,0.9-1,1.9-1,2.9C302.2,58.6,302.3,58.9,302.7,58.9z"
			/>
		<path class="st8" d="M300.5,58c0.9-0.4,0.5-1.6,1-2.2c0.1-0.4-0.1-0.8-0.3-0.7c-1,0.3-0.8,1.4-1.1,2.2
			C300,57.6,300.3,58.1,300.5,58z"/>
		<path class="st8" d="M298.5,57.9c0.2,0,0.4-0.2,0.5-0.3c0.1-0.9,0.7-1.7,0.2-2.7c-0.3,0.8-0.9,1.5-0.9,2.4
			C298.2,57.5,298.1,57.9,298.5,57.9z"/>
		<path class="st8" d="M268.1,58.6c0.6-0.9,1.1-1.8,0.8-3C268.5,56.5,267.7,57.4,268.1,58.6z"/>
		<path class="st8" d="M282,104.1c0.7-1.1,0.6-2.2,0-3.2c-0.6-1-1.6-1.3-2.7-1.3c-0.4,0-0.8,0.1-0.8,0.6c0,0.5,0.5,0.3,0.8,0.3
			c1.2,0.1,2.2,0.6,2.2,1.9c0,1.4-1,1.6-2.2,1.5c-0.4,0-0.7,0.1-0.8,0.6c-0.1,0.4,0.2,0.7,0.6,0.8c0.3,0.1,0.6,0.2,0.9,0.3
			c0.4,0.3,1.2,0.3,1,1c-0.2,0.6-0.8,0.8-1.4,0.8c-0.3,0-0.6-0.2-0.9-0.2c-0.3-0.1-0.6,0.1-0.8,0.4c-0.2,0.4,0,0.8,0.3,0.9
			c0.4,0.2,0.9,0.3,1.1,0.4c2.4,0,3.4-1.8,2.3-3.7C281.2,104.6,281.8,104.4,282,104.1z"/>
		<path class="st5" d="M348.2,133.7c0-1.2,0-2.2,0-3.2c0-0.5-0.1-1-0.7-1.2c-3.8-1.3-7.3-3.3-11.3-4.2c-6-1.3-11.8-1.6-17.7,0.3
			c-0.6,0.2-0.6,0.3-0.6,0.8c-0.1,3.9,0.3,7.8,0.9,11.6c0.2,1,0.5,1,1.3,0.7c2.1-0.7,4.3-1.2,6.5-1.3c6.7-0.2,13.4,0,19.7,3.1
			c0.9,0.5,1.2,0.1,1.4-0.7C348.2,137.6,348.3,135.5,348.2,133.7z M343.9,133.9c-0.1,0.8-0.4,1.5-1.3,1.4c-1-0.1-1.1-1-1.2-1.8
			s0.5-1.1,1.2-1.1C343.4,132.6,344,133,343.9,133.9z"/>
		<path class="st6" d="M345.9,141.9c-5.4-2.7-11.2-3-17.4-3.2c-2.4,0.1-5.1,0.4-7.8,1.1c-0.5,0.1-1.5,0.1-1.2,1.1
			c1.7,5.5,3.7,10.8,9.2,13.8c4.3,2.3,10.4,1.1,13.5-2.3c2.3-2.6,3.5-5.5,4.5-8.7C346.9,142.7,346.7,142.3,345.9,141.9z"/>
		<path class="st11" d="M314.1,160.9c-1.1,0.5-1,0.8-0.3,1.5c0.8,0.8,1.7,1.7,1.9,2.9c0.3,2.9-2.8,5.7-5.8,5.2
			c-1.9-0.3-3.5-1.1-4.2-3c-0.9-2.6,1.4-5.6,4.3-5.7c0.8,0,1.2-0.2,1.5-0.9c0.9-2.1,1.9-4.2,3.4-6c0.8-1-0.1-2.8-1.3-2.7
			c-1.5,0.1-2.7,0.9-3.6,2c-0.6,0.8,0.1,1.6,0.3,2.4c0.4,1.4,0.9,2.8,0.2,4.3c-0.4-0.1-0.5-0.3-0.5-0.5c-0.2-3.5-2.1-5.8-5.1-7.4
			c-1.1-0.6-2.2-0.4-3,0.4c-0.8,0.7-1.1,1.8-0.6,2.7c0.8,1.6,1.5,3.3,3.5,3.7c0.3,0.1,0.7,0.2,0.7,0.7c-1.5,0.3-2.3-0.1-3.5-1.3
			c-0.6-0.6-0.8-1.9-2.1-1.6c-1,0.3-2,0.1-2.9,0.6c-1.6,0.8-2.1,1.8-1.4,3.5c0.2,0.6,0.7,1,0.9,1.6c0.7,1.2,1.3,1.2,2.2,0.2
			c1.4-1.5,3.1-2.5,5.2-2.1c0.4,0.1,1.1,0.1,1.1,0.6c0,0.6-0.7,0.5-1.1,0.6c-4.3,0.3-6.6,4.4-6.3,8.2c0.1,1.2,0.7,1.7,1.8,1.6
			c1.4-0.1,2.5-0.8,3.4-2.1c0.2,0.5,0.6,0.9,0.5,1.3c-0.4,2.8,0.2,4.5,2.4,5.8c1.7,1,4.7,0.6,5-2.3c0.1-0.6-0.2-1.2-0.2-1.8
			c0-0.7-0.2-1.5,0.5-1.8c0.7-0.3,0.8,0.7,1.2,1c1.3,1.2,2.8,1.6,4.1,1c1.5-0.7,1.3-2.1,1.4-3.4c0-0.4,0-0.8-0.1-1.2
			c-0.6-1.7,0.5-1.9,1.8-2c0.3,0,0.5,0,0.8,0c1.8,0.4,2.6-1.3,3.9-1.9c0.4-0.2,0.3-0.8,0.3-1.2c0-1.7-1.9-3.5-3.7-3.9
			C318.4,159.3,316.3,160,314.1,160.9z"/>
		<path class="st12" d="M306.9,166.4c0,1.3,1.7,2.7,3.3,2.8c2,0,4.1-1.6,4.1-3.1c0-1.5-1.8-3.1-3.5-3.1
			C309.2,162.9,306.9,164.9,306.9,166.4z"/>
		<path class="st11" d="M321.9,168c-0.7,0.1-1.3,0.1-2,0.2c-0.4,0-1.1-0.3-1.1,0.5c0.1,1.2-0.2,2.3,0.3,3.5c0,0,0.1,0,0.2,0
			c1.6,0.3,3.9-1.5,3.9-3.2C323.2,167.9,323.1,167.8,321.9,168z"/>
		<path class="st11" d="M316.1,156.1c-0.5,0.8-1,1.5-1.5,2.3c-0.2,0.3-0.3,0.6,0,0.9c0.3,0.3,0.6-0.1,0.8-0.2c1-0.4,1.9-0.7,3-0.8
			c0.5,0,1.3,0.1,1.4-0.4c0.1-0.6-0.3-1.3-1-1.6c-0.6-0.3-1.3-0.5-1.9-0.7C316.5,155.7,316.2,155.9,316.1,156.1z"/>
		<path class="st11" d="M313,174.4c-0.9,0-0.6,1.1-0.8,1.7c-0.3,0.6,0.4,0.5,0.8,0.5c1,0,1.9-0.5,1.9-1.3
			C314.8,174.8,313.6,174.4,313,174.4z"/>
		<path class="st5" d="M316.1,106.8c-2.9-0.4-5.7-1.2-8.6-1.8c-1.1-0.2-1.7,0.1-2,1.3c-0.5,2.3-1.2,4.5-1.8,6.7
			c-0.3,0.8-0.3,1.4,0.2,2.2c1.1,1.9,2.9,3.4,3.6,5.6c0.2,0.7,0.6,0.2,0.8,0.1c1.3-0.5,2.6-1.1,3.9-1.7c0.4-0.5,0.9-0.6,1.5-0.8
			c2.6-1.1,2.7-1.2,2.7-4c0-2-0.2-4.1,0.3-6C316.4,107.9,317.2,106.9,316.1,106.8z M311.9,110.4c-1,0.1-2.1-1.2-2-2.2
			c0.1-1.1,0.9-1.5,1.8-1.6c0.9-0.1,1.9,1.2,1.9,2C313.5,109.9,312.8,110.3,311.9,110.4z"/>
		<path class="st6" d="M296.1,116.6c-0.2-0.3-0.7-0.2-0.8,0.1c-0.5,0.6,0,1,0.4,1.5C296,117.6,296.4,117.2,296.1,116.6z"/>
		<path class="st1" d="M289.7,61.3c-1.2-0.3-2.4-0.3-3.6-0.2c-0.4,0-1,0-0.7,0.8c1.2,3.2,2.8,6.3,4.5,9.6c1.1-2.1,1.8-4.1,2.2-6.1
			c0.1-0.3,0.2-0.6,0.3-0.9c0.3-0.9,0.8-1.8,0.4-2.9C291.8,61.7,290.7,61.8,289.7,61.3z"/>
		<path class="st1" d="M282,61.4c-2.1,0-4.3,0.3-6.4-0.2c-1.2-0.3-1.2,0.3-0.8,1c1.4,2.5,2.1,5.3,4.3,7.7c1.3-2.5,2.5-4.9,3.8-7.3
			C283.4,61.4,283,61.4,282,61.4z"/>
		<path class="st8" d="M342.6,132.4c-0.7,0.1-1.3,0.4-1.2,1.1c0.1,0.7,0.1,1.7,1.2,1.8c0.9,0.1,1.2-0.7,1.3-1.4
			C344,133,343.4,132.6,342.6,132.4z"/>
		<path class="st8" d="M311.6,106.7c-0.9,0.1-1.7,0.5-1.8,1.6c-0.1,1,1,2.3,2,2.2c0.9-0.1,1.7-0.5,1.7-1.8
			C313.6,107.9,312.5,106.6,311.6,106.7z"/>
	</g>
</g>
</svg>
