<?xml version="1.0" encoding="utf-8"?>
<!-- Generator: Adobe Illustrator 16.0.3, SVG Export Plug-In . SVG Version: 6.00 Build 0)  -->
<!DOCTYPE svg PUBLIC "-//W3C//DTD SVG 1.1//EN" "http://www.w3.org/Graphics/SVG/1.1/DTD/svg11.dtd">
<svg version="1.1" id="레이어_1" xmlns="http://www.w3.org/2000/svg" xmlns:xlink="http://www.w3.org/1999/xlink" x="0px"
	 y="0px" width="16.083px" height="24px" viewBox="0 0 16.083 24" enable-background="new 0 0 16.083 24" xml:space="preserve">
<polygon fill="#99CC66" points="4.021,14.399 4.021,19.199 0,19.199 0,23.999 8.042,23.999 8.042,20.906 9.76,20.906 9.76,19.199 
	12.063,19.199 12.063,16.078 13.73,16.078 13.73,14.399 16.083,14.399 16.083,9.599 13.73,9.599 13.73,7.937 12.063,7.937 
	12.063,4.799 9.76,4.799 9.76,3.125 8.042,3.125 8.042,0 0,0 0,4.799 4.021,4.799 4.021,9.599 8.042,9.599 8.042,14.399 "/>
</svg>
