<?xml version="1.0" encoding="utf-8"?>
<!-- Generator: Adobe Illustrator 16.0.3, SVG Export Plug-In . SVG Version: 6.00 Build 0)  -->
<!DOCTYPE svg PUBLIC "-//W3C//DTD SVG 1.1//EN" "http://www.w3.org/Graphics/SVG/1.1/DTD/svg11.dtd">
<svg version="1.1" id="레이어_1" xmlns="http://www.w3.org/2000/svg" xmlns:xlink="http://www.w3.org/1999/xlink" x="0px"
	 y="0px" width="16.083px" height="24px" viewBox="0 0 16.083 24" enable-background="new 0 0 16.083 24" xml:space="preserve">
<polygon fill="#99CC66" points="12.063,9.6 12.063,4.8 16.083,4.8 16.083,0 8.042,0 8.042,3.093 6.323,3.093 6.323,4.8 4.021,4.8 
	4.021,7.921 2.354,7.921 2.354,9.6 0,9.6 0,14.4 2.354,14.4 2.354,16.062 4.021,16.062 4.021,19.2 6.323,19.2 6.323,20.875 
	8.042,20.875 8.042,24 16.083,24 16.083,19.2 12.063,19.2 12.063,14.4 8.042,14.4 8.042,9.6 "/>
</svg>
